<?xml version="1.0" standalone="no"?>
<!DOCTYPE svg PUBLIC "-//W3C//DTD SVG 20010904//EN"
 "http://www.w3.org/TR/2001/REC-SVG-20010904/DTD/svg10.dtd">
<svg version="1.0" xmlns="http://www.w3.org/2000/svg"
 width="640.000000pt" height="426.000000pt" viewBox="0 0 640.000000 426.000000"
 preserveAspectRatio="xMidYMid meet">

<g transform="translate(0.000000,426.000000) scale(0.100000,-0.100000)"
fill="#000000" stroke="none">
<path d="M0 4165 c0 -52 2 -95 5 -95 2 0 19 7 37 14 18 8 116 45 218 81 102
36 201 72 220 80 31 12 7 14 -222 14 l-258 1 0 -95z"/>
<path d="M925 4250 c-3 -5 -4 -14 0 -20 6 -9 -49 -41 -95 -55 -14 -4 -38 -13
-55 -21 -16 -7 -136 -54 -265 -103 -129 -49 -297 -112 -372 -141 l-138 -53 0
-168 0 -168 121 -121 c173 -174 221 -191 450 -157 74 10 135 20 137 21 1 2
-18 61 -43 132 -25 71 -45 130 -45 131 0 1 6 8 13 15 7 7 27 32 43 55 32 44
46 44 67 3 7 -13 32 -34 56 -47 24 -13 38 -23 30 -23 -11 -1 -11 -3 1 -13 9
-7 20 -22 25 -34 7 -16 14 -20 24 -14 12 8 12 12 2 24 -10 13 -6 17 24 27 20
7 45 21 56 33 l19 21 123 -63 c67 -35 133 -70 147 -78 23 -14 29 -13 87 20 34
19 72 38 84 42 12 4 74 32 137 63 78 38 117 63 125 79 7 15 19 23 36 23 31 0
116 39 178 80 24 17 50 30 57 30 7 0 16 3 20 7 4 4 22 8 39 10 18 1 71 20 117
42 78 36 86 43 103 83 49 122 67 235 51 316 l-6 31 -120 0 c-120 1 -120 1
-115 -22 l6 -22 -16 23 c-12 16 -25 22 -54 22 -22 0 -39 -2 -39 -4 0 -3 10
-22 22 -43 18 -31 19 -35 4 -24 -9 8 -24 27 -32 43 -14 26 -18 28 -79 28 -36
0 -65 -3 -65 -7 0 -5 9 -23 21 -42 30 -50 16 -48 -22 4 l-34 45 -286 -2 c-236
-3 -289 -6 -305 -18 -18 -14 -18 -14 -5 3 13 16 6 17 -107 17 -70 0 -123 -4
-127 -10z m800 -40 c3 -5 15 -10 26 -10 11 0 23 -10 28 -22 5 -13 19 -33 30
-45 30 -32 26 -38 -24 -40 -28 -1 -45 2 -45 9 0 6 -3 9 -6 5 -4 -3 -20 1 -36
9 -22 11 -33 13 -41 5 -19 -19 -32 -12 -44 20 -12 32 -9 54 6 45 12 -8 81 14
81 24 0 13 17 13 25 0z m295 -19 c0 -6 -4 -13 -10 -16 -5 -3 -10 1 -10 9 0 9
5 16 10 16 6 0 10 -4 10 -9z m-440 -52 c0 -17 -49 -59 -55 -48 -4 5 -11 9 -17
9 -6 0 -5 -7 3 -17 13 -15 11 -16 -14 -11 -22 4 -25 3 -16 -9 17 -20 5 -27
-20 -11 -13 8 -20 21 -19 33 5 35 138 87 138 54z m280 -15 c0 -8 -4 -12 -10
-9 -5 3 -10 13 -10 21 0 8 5 12 10 9 6 -3 10 -13 10 -21z m-320 -64 c0 -5 -5
-10 -11 -10 -5 0 -7 5 -4 10 3 6 8 10 11 10 2 0 4 -4 4 -10z m-215 -20 c3 -5
1 -10 -4 -10 -6 0 -11 5 -11 10 0 6 2 10 4 10 3 0 8 -4 11 -10z m153 -62 c9
-16 25 -28 37 -28 16 0 24 -13 41 -65 12 -36 20 -65 19 -65 -2 0 -14 17 -26
37 -13 20 -47 63 -76 96 -29 33 -53 66 -53 75 0 12 4 12 21 -4 11 -10 28 -31
37 -46z m-130 -50 c9 -32 8 -36 -8 -35 -12 1 -16 7 -12 21 3 13 1 17 -6 12
-12 -7 -11 -1 4 42 7 18 8 17 22 -40z m-92 7 c-3 -8 -1 -15 4 -15 17 0 11 -19
-9 -29 -16 -9 -18 -8 -14 12 8 37 12 47 19 47 3 0 4 -7 0 -15z m-70 -42 c-10
-10 -19 5 -10 18 6 11 8 11 12 0 2 -7 1 -15 -2 -18z m552 -149 c-9 -10 -21
-13 -29 -8 -9 5 -8 9 7 15 31 12 39 10 22 -7z m-613 -44 c3 -5 1 -10 -4 -10
-6 0 -11 5 -11 10 0 6 2 10 4 10 3 0 8 -4 11 -10z m-305 -142 c0 -6 -7 -5 -15
2 -8 7 -15 17 -15 22 0 6 7 5 15 -2 8 -7 15 -17 15 -22z m74 7 c-10 -8 -26
-14 -34 -14 -9 0 -4 6 10 14 33 19 49 19 24 0z"/>
<path d="M5447 3629 c7 -7 15 -10 18 -7 3 3 -2 9 -12 12 -14 6 -15 5 -6 -5z"/>
<path d="M5145 3580 c3 -5 8 -10 11 -10 2 0 4 5 4 10 0 6 -5 10 -11 10 -5 0
-7 -4 -4 -10z"/>
<path d="M5100 3565 c0 -8 4 -15 10 -15 5 0 7 7 4 15 -4 8 -8 15 -10 15 -2 0
-4 -7 -4 -15z"/>
<path d="M5593 3573 c-19 -7 -16 -23 5 -23 15 -1 15 -3 -4 -18 -11 -10 -20
-26 -18 -36 3 -22 -95 -71 -125 -61 -11 3 -22 2 -25 -3 -3 -6 6 -12 19 -15 14
-2 28 0 31 4 3 5 13 9 24 9 13 0 17 -5 13 -20 -6 -23 -24 -29 -75 -26 -20 1
-34 -2 -32 -6 3 -4 -2 -8 -10 -8 -9 0 -16 -4 -16 -9 0 -5 9 -7 19 -4 23 6 44
-26 31 -48 -5 -7 -24 -14 -42 -14 -27 -1 -32 -5 -30 -19 2 -11 -2 -23 -10 -27
-10 -7 -10 -9 3 -9 8 0 20 5 27 10 6 6 10 7 7 4 -2 -4 0 -15 6 -26 8 -15 3
-28 -28 -66 -33 -42 -34 -44 -8 -22 17 14 33 29 37 35 4 5 10 6 14 3 3 -4 -6
-28 -20 -53 -20 -34 -24 -50 -17 -63 7 -12 5 -22 -6 -34 -9 -10 -11 -18 -5
-18 13 0 27 -38 23 -67 -1 -13 3 -23 9 -23 7 0 10 -7 7 -15 -4 -8 -2 -17 3
-20 6 -4 10 -11 10 -16 0 -6 -5 -7 -11 -3 -8 4 -9 0 -4 -15 7 -22 -4 -28 -21
-11 -5 5 -31 11 -57 12 -26 2 -47 6 -47 9 0 3 -12 5 -27 2 -24 -3 -25 -2 -8 6
19 9 19 10 -2 10 -12 1 -25 5 -28 11 -3 6 1 7 10 4 8 -4 32 2 53 12 20 10 41
17 45 16 5 -1 6 2 2 8 -3 5 -1 10 5 10 6 0 8 5 5 10 -3 6 -11 10 -16 10 -6 0
-8 -4 -5 -9 3 -5 -11 -11 -32 -14 -20 -3 -46 -8 -57 -12 -19 -6 -19 -6 -2 8 9
8 17 18 17 22 0 5 18 24 40 43 47 40 46 51 -2 26 -32 -16 -33 -16 -17 2 10 11
19 27 20 37 2 10 8 17 13 17 9 -2 26 19 26 34 0 5 -7 3 -15 -4 -18 -15 -19 -7
-4 22 9 16 8 19 -3 13 -26 -16 -58 -49 -58 -62 0 -7 -5 -13 -11 -13 -7 0 -9
-10 -5 -27 6 -27 6 -27 -10 -8 -15 19 -16 19 -9 -12 3 -18 3 -39 -2 -47 -6
-10 -9 1 -10 33 0 27 -6 58 -12 70 -8 15 -9 27 -1 40 6 12 6 21 0 23 -6 2 -6
16 2 39 6 21 7 50 3 65 -7 28 -7 28 -16 7 -11 -29 -23 -30 -14 -2 5 15 4 19
-4 15 -14 -9 6 41 26 65 7 9 12 29 12 45 -2 34 -26 94 -38 94 -11 0 -21 -26
-20 -48 0 -14 2 -13 10 3 6 14 7 6 2 -25 -3 -25 -6 -55 -5 -67 2 -26 -9 -35
-28 -23 -11 7 -12 13 -1 36 8 19 10 48 5 93 -4 36 -9 60 -11 54 -3 -7 -11 -13
-19 -13 -8 0 -14 -5 -14 -11 0 -14 21 -52 34 -62 7 -6 4 -7 -6 -3 -13 4 -18 0
-18 -14 0 -14 5 -18 16 -13 14 5 15 3 5 -15 -17 -32 -31 -27 -32 11 0 17 -3
26 -6 20 -2 -7 -9 -13 -15 -13 -15 0 -35 24 -31 37 2 6 -1 14 -6 18 -6 3 -12
-2 -12 -12 -5 -55 -4 -101 3 -125 10 -41 2 -34 -26 20 l-24 47 -8 -55 c-5 -30
-7 -58 -6 -62 5 -20 -20 -5 -30 17 -23 50 -43 17 -25 -42 6 -21 19 -44 29 -51
10 -7 18 -18 18 -24 0 -6 -8 -4 -18 5 -9 9 -36 20 -59 25 -23 5 -49 17 -58 26
-33 32 -28 15 6 -20 l34 -37 -40 27 c-49 33 -72 34 -70 4 1 -16 11 -26 33 -33
17 -6 34 -14 38 -18 10 -10 42 -9 46 1 2 5 17 3 33 -5 l30 -14 -28 4 c-22 3
-25 2 -16 -9 14 -17 -2 -19 -19 -2 -9 9 -12 8 -12 -6 0 -15 -6 -17 -41 -11
-40 7 -99 -9 -99 -26 0 -12 6 -11 40 6 17 9 30 12 30 8 0 -5 -15 -17 -34 -27
-37 -19 -40 -52 -5 -43 11 3 22 0 25 -5 8 -12 -77 -6 -110 7 -15 6 -17 5 -11
-5 5 -9 4 -11 -3 -6 -17 10 -32 -2 -26 -19 5 -13 10 -13 32 -1 27 14 72 4 72
-16 0 -5 -9 -4 -19 2 -26 13 -51 3 -44 -18 3 -11 2 -13 -4 -6 -4 7 -19 10 -33
9 -36 -4 -37 -4 -20 -15 13 -8 12 -10 -3 -10 -10 0 -20 -7 -24 -16 -3 -8 -12
-13 -19 -10 -8 3 -11 0 -7 -9 4 -11 10 -12 25 -4 10 6 24 8 31 6 7 -3 0 -8
-15 -12 -27 -7 -41 -28 -15 -22 7 1 11 -7 10 -20 -3 -26 0 -27 28 -13 10 6 19
8 19 6 0 -3 -9 -10 -19 -16 -21 -11 -54 -3 -45 11 3 5 0 9 -5 9 -6 0 -11 -4
-11 -9 0 -5 -8 -8 -17 -7 -9 0 -22 -8 -27 -19 -6 -11 -15 -20 -21 -21 -28 -1
-115 -54 -90 -54 4 0 1 -10 -7 -22 -18 -29 -22 -88 -6 -88 6 0 9 -3 5 -6 -9
-10 -65 34 -79 63 -13 25 -58 43 -58 23 0 -6 9 -10 19 -10 15 0 31 -18 31 -35
0 -7 -46 9 -52 19 -4 6 -8 0 -8 -14 0 -17 -3 -21 -9 -12 -7 11 -11 11 -22 -1
-8 -7 -20 -12 -26 -10 -7 3 -20 0 -30 -5 -13 -8 -20 -6 -29 6 -11 15 -12 15
-11 -3 1 -12 -5 -20 -18 -23 -55 -9 -64 -13 -59 -27 4 -8 1 -15 -6 -15 -6 0
-14 9 -17 20 -3 11 -9 20 -14 20 -5 0 -6 -6 -3 -14 3 -9 -8 -17 -35 -24 -36
-8 -41 -8 -41 7 0 11 -3 13 -8 4 -6 -10 -17 -10 -43 -3 -18 6 -49 11 -66 12
-18 1 -33 5 -33 10 0 15 -30 8 -50 -12 -11 -11 -24 -20 -30 -20 -5 0 -10 9
-10 20 0 13 7 20 19 20 11 0 29 13 40 29 12 16 37 35 57 41 42 14 128 5 145
-16 6 -8 18 -14 26 -14 13 0 13 3 3 15 -7 8 -17 15 -22 15 -6 0 -66 28 -134
62 -78 39 -119 65 -111 70 8 5 8 8 1 8 -6 0 -14 14 -18 31 -5 28 -7 29 -22 14
-19 -19 -34 -16 -48 11 -37 69 -59 96 -66 84 -7 -11 -12 -10 -25 3 -23 24 -36
21 -26 -5 5 -13 14 -22 20 -20 6 1 11 -4 11 -12 0 -23 -37 -7 -69 30 -19 22
-28 40 -24 53 6 24 23 23 41 -1 7 -10 21 -18 30 -18 17 1 13 5 -83 89 -33 27
-42 31 -58 22 -19 -12 -37 -7 -37 11 0 5 7 8 15 4 8 -3 15 0 15 5 0 6 -9 9
-20 6 -10 -3 -24 1 -31 9 -6 8 -18 14 -25 14 -8 0 -23 9 -33 19 -15 15 -42 21
-121 28 -56 5 -104 5 -106 1 -5 -8 -24 -6 -76 7 -18 5 -28 3 -28 -4 0 -6 -8
-11 -17 -11 -16 0 -16 2 -3 10 11 8 8 9 -12 4 -20 -4 -28 -2 -28 7 0 10 -3 10
-11 2 -6 -6 -18 -9 -25 -6 -8 3 -14 -1 -14 -8 0 -7 -3 -9 -7 -6 -3 4 -12 2
-19 -4 -8 -6 -20 -9 -28 -6 -9 4 -16 -1 -18 -10 -2 -13 -16 -17 -63 -19 -34
-1 -61 -7 -63 -13 -3 -9 -7 -9 -18 0 -11 9 -14 9 -14 -1 0 -7 -8 -10 -20 -7
-11 3 -20 1 -20 -4 0 -5 -6 -9 -14 -9 -8 0 -17 -7 -20 -16 -4 -10 -14 -14 -26
-11 -14 4 -20 0 -20 -12 0 -14 7 -17 33 -14 27 2 25 1 -11 -10 -23 -6 -46 -17
-50 -23 -6 -10 -45 -27 -65 -29 -14 0 -27 -30 -21 -50 4 -15 -1 -13 -21 10
-22 25 -25 26 -20 9 3 -13 0 -28 -9 -37 -8 -8 -12 -18 -8 -22 4 -4 -4 -4 -18
-1 -17 5 -21 4 -11 -2 7 -5 10 -15 6 -21 -5 -9 -14 -8 -32 5 -24 15 -26 15
-20 0 5 -14 3 -16 -12 -11 -14 4 -20 -1 -25 -21 -8 -32 -24 -49 -56 -59 -14
-4 -27 -11 -30 -14 -3 -4 -40 -33 -82 -65 -60 -44 -78 -63 -78 -82 0 -13 5
-24 12 -24 9 0 9 -3 0 -12 -19 -19 -14 -32 6 -17 15 12 14 11 -1 -8 -11 -12
-16 -26 -13 -31 3 -5 -6 -7 -19 -4 -14 2 -25 8 -25 13 0 5 8 5 18 2 14 -6 15
-4 5 9 -7 8 -10 18 -6 21 3 4 -5 7 -20 7 -14 0 -28 4 -31 9 -3 5 -15 7 -26 4
-11 -3 -26 0 -34 6 -11 10 -16 8 -24 -5 -9 -16 -12 -15 -41 5 -17 12 -31 19
-31 15 0 -4 -9 3 -20 16 -19 21 -20 22 -20 4 0 -11 5 -25 12 -32 9 -9 9 -12 1
-12 -7 0 -15 5 -18 10 -3 6 -11 10 -17 10 -7 0 -6 -6 2 -15 7 -8 18 -15 26
-15 7 0 16 -5 20 -12 5 -8 2 -9 -11 -4 -18 7 -18 6 0 -14 14 -16 21 -18 27 -8
7 10 8 9 6 -2 -1 -8 4 -26 11 -40 l14 -25 -22 19 c-12 11 -32 21 -44 23 l-22
2 22 -16 c13 -8 23 -24 23 -34 0 -19 14 -26 23 -11 2 4 2 1 1 -5 -2 -7 3 -13
10 -13 8 0 26 -14 40 -31 27 -32 35 -56 14 -42 -19 11 -88 14 -88 3 0 -6 5
-10 12 -10 9 0 9 -3 1 -11 -18 -18 -53 -1 -53 27 0 19 -5 25 -18 22 -12 -3
-16 -12 -14 -31 2 -22 -1 -27 -20 -27 -17 0 -19 -3 -9 -9 7 -5 21 -6 31 -4 10
3 21 0 24 -6 4 -6 14 -11 23 -11 13 0 13 2 2 17 -13 15 -12 15 10 4 19 -10 21
-15 10 -22 -11 -7 -9 -9 8 -9 12 0 29 -7 37 -15 9 -9 21 -15 28 -13 7 1 31 -2
52 -6 29 -6 36 -10 25 -17 -10 -6 -7 -9 14 -9 15 0 27 6 28 13 0 6 5 1 10 -12
7 -17 6 -28 -1 -35 -8 -8 -11 -8 -8 1 3 13 -5 15 -26 7 -8 -3 -12 -13 -9 -22
3 -13 2 -14 -4 -4 -6 7 -17 10 -28 6 -13 -5 -16 -4 -11 4 15 25 -9 11 -34 -20
l-27 -32 6 45 c6 41 8 44 41 50 l35 6 -32 3 c-18 2 -39 3 -45 4 -7 1 -16 4
-19 9 -6 9 -95 -29 -105 -45 -7 -12 24 -8 60 7 19 8 19 8 3 -15 -24 -34 -21
-48 3 -17 11 14 20 30 20 36 0 6 6 11 13 11 10 0 13 -13 11 -45 -3 -45 9 -66
28 -47 15 15 38 3 31 -15 -5 -13 -2 -13 25 1 17 9 34 20 37 26 3 5 14 10 23
10 10 0 -3 -14 -30 -33 -44 -30 -68 -59 -32 -39 16 9 79 0 91 -12 13 -12 -7
-18 -21 -7 -19 16 -78 10 -84 -8 -3 -10 2 -11 19 -6 57 18 55 18 39 6 -13 -9
-13 -11 0 -12 8 -1 20 -1 27 0 6 1 14 -3 18 -9 8 -12 -34 -13 -54 -1 -9 6 -32
3 -63 -10 -61 -24 -65 -24 -44 0 17 19 7 39 -14 26 -6 -4 -7 2 -1 17 12 32 -5
64 -25 47 -16 -13 -20 -44 -4 -34 5 3 10 -1 10 -9 0 -8 -4 -18 -10 -21 -5 -3
-10 0 -10 7 0 9 -3 9 -10 -2 -8 -13 -10 -12 -10 3 0 12 -5 16 -12 11 -10 -6
-10 -4 0 7 19 21 14 34 -7 15 -11 -10 -22 -29 -26 -44 -5 -19 -9 -22 -15 -13
-4 8 -13 10 -21 6 -8 -5 -3 4 10 18 14 15 30 43 36 61 l12 35 -34 -5 c-20 -2
-39 -7 -44 -10 -5 -3 -9 -2 -8 3 4 22 -2 32 -17 26 -10 -4 -20 1 -26 11 -5 9
-14 14 -20 10 -7 -4 -6 -9 2 -14 9 -6 8 -12 -6 -26 -13 -13 -19 -35 -20 -64
l-1 -45 94 -70 c52 -38 99 -69 104 -68 5 2 8 -3 6 -10 -1 -8 10 -12 33 -11 31
2 32 1 15 -12 -17 -13 -17 -14 -1 -14 9 0 15 -4 12 -9 -3 -5 1 -14 9 -21 12
-10 19 -10 32 1 16 12 17 12 5 -2 -18 -24 7 -43 39 -30 19 8 20 10 6 10 -17 1
-17 2 -3 17 19 18 21 34 5 34 -8 0 -8 4 0 14 15 17 51 28 51 14 0 -6 7 -8 15
-4 8 3 15 1 15 -4 0 -6 -5 -10 -11 -10 -6 0 -9 -6 -7 -12 3 -7 -5 -20 -16 -30
l-21 -17 22 -1 c16 0 21 -4 17 -15 -5 -11 -2 -13 10 -9 9 3 16 1 16 -5 0 -6
-7 -11 -16 -11 -8 0 -12 -5 -9 -10 4 -6 11 -8 16 -5 13 9 11 -9 -3 -23 -8 -8
-8 -15 2 -26 15 -19 30 -12 30 12 0 10 9 35 20 57 15 29 20 34 20 18 0 -12 2
-27 3 -35 2 -7 2 -10 0 -5 -11 18 -23 4 -23 -25 0 -25 3 -29 10 -18 8 13 10
12 10 -2 0 -10 -6 -18 -12 -18 -9 0 -8 -4 2 -10 10 -6 11 -10 3 -10 -25 0 -13
-18 34 -53 33 -25 50 -32 55 -24 5 8 8 6 8 -5 0 -9 12 -26 28 -38 15 -12 44
-37 65 -56 20 -19 42 -32 47 -29 6 3 10 0 10 -8 0 -8 24 -32 53 -54 28 -22 67
-53 86 -69 19 -16 50 -43 70 -59 20 -17 47 -38 61 -47 14 -8 68 -53 121 -99
52 -46 118 -102 144 -124 27 -22 83 -68 125 -102 41 -34 89 -73 106 -87 18
-15 37 -26 43 -26 6 0 11 -4 11 -10 0 -5 5 -10 10 -10 6 0 23 -11 38 -25 15
-14 31 -25 35 -25 5 0 33 -21 63 -46 38 -32 60 -45 74 -41 11 3 20 1 20 -4 0
-18 5 -25 44 -57 21 -18 52 -36 67 -39 18 -3 46 -25 74 -59 47 -54 74 -66 112
-49 23 10 32 35 13 35 -5 0 -10 -4 -10 -10 0 -5 -7 -7 -15 -4 -9 4 -15 0 -16
-7 -1 -17 -17 20 -18 41 -1 13 0 13 9 0 8 -12 10 -11 10 8 0 15 6 22 19 22 10
0 21 9 24 20 3 11 11 20 18 20 10 0 10 -3 1 -12 -17 -17 -15 -33 3 -18 11 9
15 9 15 1 0 -7 5 -9 10 -6 6 4 8 10 5 15 -3 4 8 16 23 25 l27 18 -19 -21 c-19
-22 -19 -22 0 -22 11 0 25 5 30 10 16 16 84 49 84 41 0 -4 -12 -14 -27 -22
-38 -18 -78 -49 -66 -49 6 0 37 14 69 31 66 36 56 14 -12 -26 -51 -30 -56 -38
-16 -25 33 10 102 20 102 15 0 -9 -72 -35 -81 -29 -5 3 -9 0 -9 -5 0 -6 -7
-11 -15 -11 -8 0 -15 -4 -15 -9 0 -14 21 -25 29 -15 11 17 60 34 66 24 4 -6
-4 -14 -17 -19 -17 -7 -19 -10 -5 -10 24 -1 21 -16 -7 -38 -18 -13 -22 -23
-16 -38 7 -18 8 -18 15 7 6 25 15 30 80 53 19 6 19 6 2 -8 -12 -10 -17 -22
-13 -35 4 -11 2 -23 -4 -27 -11 -7 -4 -25 10 -25 5 0 7 6 4 13 -3 8 3 20 12
28 16 12 17 12 11 -5 -6 -16 -4 -17 20 -12 28 6 28 6 7 -12 -17 -15 -19 -20
-7 -30 7 -7 13 -9 13 -5 0 4 5 1 10 -7 8 -13 11 -12 24 5 14 18 15 18 16 3 0
-10 10 -20 24 -24 17 -4 23 -11 19 -22 -4 -15 -3 -15 6 -2 8 11 11 12 11 2 0
-7 5 -10 11 -7 6 5 4 12 -7 20 -16 11 -16 14 4 35 12 13 22 20 22 14 0 -5 5
-2 10 6 8 12 10 12 10 -5 0 -11 4 -26 9 -34 8 -12 13 -12 35 3 15 9 24 21 21
26 -3 6 1 7 9 4 11 -4 16 0 16 11 0 9 -4 13 -10 10 -5 -3 -10 -1 -10 5 0 7
-12 10 -29 8 -16 -1 -35 3 -43 10 -9 7 -23 10 -31 6 -18 -7 -67 37 -67 60 0 8
-10 22 -22 30 -12 9 -17 16 -11 16 7 0 10 6 7 14 -6 15 26 32 35 18 3 -5 14
-11 23 -15 12 -4 15 -2 12 8 -6 16 22 75 36 75 6 0 10 -4 10 -10 0 -5 9 -10
20 -10 15 0 20 7 21 28 1 16 3 20 6 10 2 -10 9 -18 14 -18 5 0 9 8 9 18 0 14
4 12 20 -8 13 -17 20 -20 20 -10 0 10 3 11 8 4 4 -6 26 -11 49 -11 33 0 47 -6
62 -24 23 -28 26 -40 9 -37 -7 2 -12 -5 -12 -14 2 -20 -22 -25 -28 -7 -2 6
-13 9 -23 6 -19 -5 -19 -5 3 -12 12 -4 22 -11 22 -16 0 -13 33 3 52 25 10 12
25 29 34 38 9 9 13 21 10 27 -4 5 2 14 11 20 16 9 16 12 3 21 -12 8 -13 10 -1
10 8 0 23 -7 33 -17 16 -15 18 -15 18 0 0 9 12 29 27 44 16 17 24 21 20 11 -3
-10 -1 -20 5 -24 6 -4 8 -3 5 3 -4 6 0 14 9 17 8 3 12 2 9 -4 -10 -16 3 -12
23 8 10 9 40 35 67 57 26 22 60 51 75 65 15 14 55 50 90 80 35 30 93 83 129
116 37 34 91 83 122 110 88 77 261 234 290 263 15 14 57 53 95 86 37 33 95 85
128 116 34 31 98 89 144 128 46 40 81 78 79 84 -2 7 -13 17 -25 23 -13 6 -26
15 -30 19 -4 5 -1 5 6 1 6 -4 12 -2 12 3 0 6 -6 12 -12 12 -7 1 -20 3 -28 4
-8 1 -23 3 -34 4 -11 0 -16 6 -13 15 4 9 -3 16 -18 19 -14 2 -22 1 -20 -4 3
-4 1 -10 -5 -14 -5 -3 -10 1 -10 9 0 8 -10 18 -21 21 -16 6 -18 9 -8 15 7 5
17 6 21 4 4 -3 5 2 1 11 -3 9 -15 21 -27 25 -21 9 -21 9 -1 9 26 1 32 41 7 41
-15 1 -15 2 -1 13 16 12 33 46 31 60 -3 12 36 8 44 -4 4 -8 12 -3 20 12 17 31
17 36 0 42 -10 4 -13 1 -9 -8 5 -15 -23 -33 -34 -22 -3 3 0 28 7 56 6 28 12
122 13 211 0 88 4 160 9 160 4 0 8 7 8 15 0 8 -4 15 -8 15 -4 0 -6 32 -4 70 3
47 1 70 -7 70 -8 0 -11 -67 -11 -228 0 -126 -3 -231 -6 -235 -7 -7 -140 59
-149 74 -4 5 -15 9 -26 9 -11 0 -18 4 -15 9 4 5 1 11 -6 13 -19 7 1 28 28 28
29 0 28 -1 8 39 -17 34 -12 66 9 58 6 -3 20 -8 30 -12 10 -4 17 -3 17 4 0 6
-10 11 -21 11 -17 0 -20 4 -16 22 4 12 1 29 -6 37 -9 11 -9 15 1 18 6 3 12 16
12 29 0 20 5 24 30 24 17 0 30 4 30 9 0 4 -11 6 -24 4 -24 -5 -24 -4 -22 53 2
33 6 66 9 74 3 8 8 27 11 43 4 17 13 27 24 27 13 0 14 -2 3 -9 -9 -6 -11 -16
-6 -32 7 -22 8 -22 25 12 16 29 16 36 4 50 -8 8 -14 34 -14 57 0 27 -5 42 -12
42 -7 0 -5 5 6 11 16 10 17 20 11 94 -6 79 -5 84 14 90 14 4 21 15 21 30 0 13
7 31 16 39 14 15 14 16 -1 16 -29 0 -13 35 18 38 31 4 34 14 11 33 -11 9 -14
23 -10 48 4 20 8 52 11 72 12 90 57 145 109 134 76 -15 96 -17 96 -7 0 16 -50
52 -71 52 -11 0 -19 5 -19 11 0 6 -7 9 -15 5 -8 -3 -15 -1 -15 5 0 6 -6 7 -12
2 -16 -9 -41 -10 -48 -2 -3 3 -11 4 -17 2z m-143 -213 c0 -5 -2 -10 -4 -10 -3
0 -8 5 -11 10 -3 6 -1 10 4 10 6 0 11 -4 11 -10z m-420 -40 c0 -11 -2 -20 -4
-20 -2 0 -6 9 -9 20 -3 11 -1 20 4 20 5 0 9 -9 9 -20z m73 -50 c-3 -10 -12
-25 -21 -32 -13 -11 -12 -8 2 20 19 36 27 41 19 12z m-353 -101 c0 -6 -4 -7
-10 -4 -5 3 -10 11 -10 16 0 6 5 7 10 4 6 -3 10 -11 10 -16z m345 -9 c3 -5 1
-10 -4 -10 -6 0 -11 5 -11 10 0 6 2 10 4 10 3 0 8 -4 11 -10z m-1817 -55 c-3
-3 -9 2 -12 12 -6 14 -5 15 5 6 7 -7 10 -15 7 -18z m2242 5 c0 -5 -4 -10 -10
-10 -5 0 -10 5 -10 10 0 6 5 10 10 10 6 0 10 -4 10 -10z m-562 -13 c-1 -2 3
-11 11 -20 7 -10 9 -17 5 -17 -12 0 -34 36 -27 44 7 6 17 1 11 -7z m-2278 -27
c0 -5 -8 -14 -17 -19 -14 -8 -15 -11 -3 -11 11 0 10 -4 -5 -16 -11 -8 -20 -18
-20 -22 -2 -18 -43 -71 -50 -64 -5 4 -5 1 -1 -6 4 -7 0 -24 -9 -38 -21 -32
-29 -26 -15 12 11 27 10 27 -8 11 -10 -9 -25 -17 -33 -17 -10 1 -9 3 4 11 9 5
17 16 17 23 0 14 119 144 133 145 4 1 7 -3 7 -9z m690 0 c8 -5 12 -12 9 -15
-8 -8 -39 5 -39 16 0 11 11 11 30 -1z m-658 -12 c-17 -17 -15 -28 6 -22 16 5
16 5 -1 -6 -26 -17 -42 -2 -21 21 9 10 20 19 23 19 3 0 0 -5 -7 -12z m82 -9
c-32 -13 -50 -9 -24 5 14 7 29 10 34 8 5 -3 1 -9 -10 -13z m187 9 c0 -10 2
-10 6 0 8 19 33 14 33 -7 0 -28 17 -35 25 -11 10 33 40 24 37 -11 -2 -13 41
-1 49 14 9 15 12 14 30 -4 14 -14 28 -19 44 -15 14 4 25 1 28 -7 3 -9 8 -9 21
2 9 8 19 11 23 7 3 -3 1 -6 -5 -6 -7 0 -12 -3 -12 -8 0 -4 15 -7 33 -7 20 0
31 -5 30 -12 -2 -7 9 -16 24 -20 31 -7 55 -27 46 -37 -4 -3 4 -6 16 -6 13 0
26 -9 33 -25 6 -14 17 -24 23 -21 7 2 18 0 26 -5 10 -6 10 -9 2 -9 -20 0 -15
-30 5 -31 9 -1 20 -1 25 0 4 0 7 -3 7 -9 0 -5 -4 -10 -10 -10 -5 0 -10 -5 -10
-11 0 -6 9 -8 22 -3 20 6 21 5 10 -9 -12 -13 -10 -18 7 -29 12 -7 21 -18 21
-25 0 -7 3 -13 8 -13 10 0 32 -51 26 -62 -3 -4 1 -27 10 -51 8 -23 18 -67 21
-98 6 -53 5 -56 -15 -55 -11 0 -24 6 -28 11 -4 6 -59 11 -122 12 -63 1 -128 5
-145 8 -20 5 -26 3 -17 -3 10 -7 6 -12 -16 -21 -32 -13 -63 -12 -74 4 -5 6
-11 6 -19 -2 -9 -9 -8 -16 5 -28 9 -9 16 -20 16 -25 0 -5 10 -10 21 -12 19 -3
65 -66 55 -76 -2 -2 -18 -4 -35 -4 -18 -1 -31 -6 -31 -14 0 -21 -35 -34 -94
-34 -30 0 -58 -5 -61 -10 -4 -6 -19 0 -37 15 -19 16 -37 23 -49 20 -26 -8 -45
39 -30 72 13 28 0 30 -23 4 -21 -23 -56 -91 -56 -108 0 -7 -4 -13 -8 -13 -4 0
-16 -13 -25 -30 -20 -34 -37 -39 -37 -12 0 11 -7 18 -20 18 -11 0 -20 -4 -20
-8 0 -4 -8 -8 -17 -8 -11 0 -14 3 -7 8 6 4 14 18 18 32 3 14 3 19 0 13 -3 -7
-15 -13 -27 -13 -17 0 -15 4 13 17 38 19 52 32 44 45 -3 4 5 8 17 8 18 0 20
-3 11 -12 -7 -7 -12 -16 -12 -21 0 -5 13 5 30 23 16 17 34 29 40 25 6 -3 7 0
4 9 -3 9 -1 16 6 16 6 0 8 5 5 10 -3 6 -1 10 4 10 22 0 10 18 -16 27 -64 20
-238 -10 -279 -48 -13 -12 -27 -19 -31 -16 -3 4 -16 1 -27 -6 -32 -20 -58 -29
-50 -16 4 7 -1 7 -16 -1 -12 -6 -33 -9 -46 -6 -21 6 -23 9 -14 27 6 11 9 25 7
32 -3 7 -10 0 -16 -15 -13 -35 -21 -36 -15 -3 3 16 0 25 -8 25 -7 0 -2 11 12
24 14 12 33 37 42 54 15 29 15 30 0 26 -15 -5 -15 -4 0 9 10 7 20 34 23 58 3
24 12 49 20 55 11 8 12 13 3 22 -9 9 -7 12 8 12 15 0 16 2 5 9 -12 8 -12 12
-2 25 7 9 18 13 25 9 6 -4 5 1 -3 10 -12 16 -11 21 13 46 20 21 24 30 14 34
-8 4 -7 6 5 6 10 1 16 5 13 10 -3 5 3 11 15 14 11 3 19 11 18 19 -4 30 1 39
20 33 11 -3 22 -1 26 5 4 6 15 8 26 5 11 -4 19 -2 19 4 0 6 -4 11 -10 11 -5 0
-10 4 -10 10 0 5 7 7 15 4 8 -4 15 -13 15 -21 0 -8 7 -13 17 -11 9 2 16 8 16
13 -1 6 4 19 10 30 6 11 10 23 9 28 -1 4 4 7 12 7 8 0 18 9 21 21 4 13 12 18
22 15 9 -4 21 -2 28 4 10 8 15 6 20 -9 3 -12 11 -21 17 -21 6 0 6 6 -2 15 -16
19 -9 27 23 29 17 1 23 6 19 16 -4 12 -2 12 8 3 20 -18 53 2 45 28 -4 11 -2
19 4 19 6 0 11 -6 12 -12z m392 -18 c19 0 25 -5 25 -25 0 -32 -5 -31 -53 11
-22 20 -30 31 -18 25 12 -6 33 -11 46 -11z m1443 11 c-3 -5 -17 -8 -31 -8 -13
0 -22 3 -19 8 3 5 16 9 30 9 14 0 23 -4 20 -9z m48 3 c24 -9 9 -24 -22 -23
-20 1 -22 3 -8 6 15 4 16 7 5 14 -16 10 1 12 25 3z m-2264 -18 c0 -2 -8 -10
-17 -17 -16 -13 -17 -12 -4 4 13 16 21 21 21 13z m2496 -10 c10 -8 17 -17 14
-19 -3 -3 -16 3 -29 14 -27 22 -15 26 15 5z m-2579 -30 c-4 -22 -1 -36 6 -39
7 -2 -2 -11 -20 -20 -40 -21 -55 -42 -22 -32 22 7 23 7 9 -10 -8 -10 -13 -21
-10 -24 3 -3 -9 -11 -27 -16 -38 -13 -53 -25 -30 -25 10 0 17 -4 17 -9 0 -4
-11 -6 -25 -3 -28 5 -23 22 14 56 12 11 21 24 21 31 0 14 34 47 41 40 3 -2 5
5 6 16 2 18 0 19 -14 7 -15 -12 -15 -11 -2 10 8 12 17 22 21 22 4 0 5 7 2 15
-4 8 -1 15 6 15 9 0 11 -11 7 -34z m2293 19 c0 -13 4 -14 20 -5 25 13 26 2 3
-17 -10 -8 -13 -12 -8 -9 6 2 17 1 24 -4 11 -6 8 -11 -10 -20 -17 -9 -24 -10
-27 -2 -4 14 -62 -13 -62 -28 0 -6 -4 -10 -10 -10 -22 0 -8 30 20 45 16 8 29
19 29 23 -1 4 -1 15 0 25 1 21 21 23 21 2z m-2080 -5 c0 -5 -8 -10 -17 -10
-15 0 -16 2 -3 10 19 12 20 12 20 0z m2045 0 c-3 -5 -12 -10 -18 -10 -7 0 -6
4 3 10 19 12 23 12 15 0z m373 -15 c-3 -3 -9 2 -12 12 -6 14 -5 15 5 6 7 -7
10 -15 7 -18z m-2691 -5 c-2 -12 -15 -35 -30 -51 -15 -17 -27 -34 -27 -38 0
-4 -7 -16 -16 -27 -8 -10 -12 -12 -8 -4 7 13 6 13 -9 1 -10 -8 -21 -11 -25 -7
-4 4 0 13 8 19 9 7 14 19 13 27 -2 8 6 21 18 28 12 8 18 9 14 3 -3 -6 0 -11 8
-11 10 0 13 7 10 20 -6 24 -18 25 -56 5 -19 -10 -27 -11 -25 -3 3 7 18 16 35
20 17 4 44 15 59 23 36 19 34 19 31 -5z m218 0 c3 -5 1 -10 -4 -10 -6 0 -11 5
-11 10 0 6 2 10 4 10 3 0 8 -4 11 -10z m2409 -29 c-2 -3 -12 3 -22 13 -16 17
-16 18 5 5 12 -7 20 -15 17 -18z m-2451 -26 c-9 -19 -23 -37 -32 -40 -12 -5
-12 -2 2 13 9 10 17 25 17 34 0 16 9 28 22 28 4 0 0 -16 -9 -35z m2337 0 c-17
-21 -10 -26 42 -31 32 -3 38 -2 23 5 -16 8 -16 10 -4 10 9 1 22 -5 28 -13 7
-8 23 -17 38 -21 14 -3 23 -8 20 -11 -3 -3 -22 -1 -43 5 -22 6 -58 11 -81 13
-24 1 -43 5 -43 9 0 4 -10 5 -22 2 -23 -4 -23 -4 -3 11 11 8 25 20 30 25 16
16 29 12 15 -4z m-55 -5 c-3 -5 -12 -10 -18 -10 -7 0 -6 4 3 10 19 12 23 12
15 0z m-1385 -26 c0 -8 5 -14 10 -14 6 0 10 -7 10 -15 0 -19 -9 -19 -31 1 -9
8 -15 23 -12 34 6 22 23 17 23 -6z m1557 20 c-3 -3 -12 -4 -19 -1 -8 3 -5 6 6
6 11 1 17 -2 13 -5z m-309 -36 c-20 -17 -28 -42 -18 -58 9 -15 -23 -70 -41
-70 -12 0 -12 57 1 65 6 4 7 -1 3 -11 -4 -11 -2 -15 4 -11 6 4 14 24 18 44 7
36 19 53 39 53 6 0 3 -6 -6 -12z m112 7 c0 -2 -10 -9 -22 -15 -22 -11 -22 -10
-4 4 21 17 26 19 26 11z m-2360 -17 c-1 -20 -25 -48 -42 -48 -8 0 -20 -6 -28
-12 -8 -7 -3 1 13 18 15 16 27 35 27 42 0 7 7 12 15 12 8 0 15 -6 15 -12z
m2295 2 c-3 -5 -12 -10 -18 -10 -7 0 -6 4 3 10 19 12 23 12 15 0z m-85 -3 c0
-2 -10 -12 -21 -23 -22 -19 -22 -19 -8 4 12 19 29 30 29 19z m210 -1 c0 -3 -4
-8 -10 -11 -5 -3 -10 -1 -10 4 0 6 5 11 10 11 6 0 10 -2 10 -4z m-355 -16 c-3
-5 -11 -10 -16 -10 -6 0 -7 5 -4 10 3 6 11 10 16 10 6 0 7 -4 4 -10z m290 0
c-3 -5 -1 -10 6 -10 7 0 4 -6 -7 -14 -10 -8 -20 -13 -22 -11 -5 4 17 45 24 45
3 0 2 -4 -1 -10z m-1305 -21 c0 -6 -4 -7 -10 -4 -5 3 -10 11 -10 16 0 6 5 7
10 4 6 -3 10 -11 10 -16z m1700 -15 c22 -15 37 -30 35 -35 -6 -9 -85 40 -85
53 0 13 8 10 50 -18z m-157 -4 c-32 -19 -44 -40 -23 -40 6 0 10 5 10 12 0 9 3
9 11 1 9 -9 6 -19 -10 -42 -13 -17 -27 -31 -33 -31 -6 0 -3 9 7 20 10 11 16
22 14 24 -2 3 -36 -26 -74 -64 -68 -69 -89 -82 -63 -41 11 18 11 23 -2 31 -8
5 -10 10 -5 11 6 0 18 2 28 4 13 2 17 -1 13 -12 -4 -8 14 7 38 33 24 27 40 51
35 52 -5 2 -7 8 -3 13 3 5 -7 4 -23 -1 -26 -9 -27 -9 -9 5 11 8 25 15 30 15 6
0 4 5 -4 11 -11 8 -8 9 15 5 17 -3 37 -2 45 4 8 5 20 10 25 10 6 0 -5 -9 -22
-20z m192 10 c3 -6 -1 -7 -9 -4 -18 7 -21 14 -7 14 6 0 13 -4 16 -10z m-335
-3 c0 -2 -17 -19 -37 -38 -34 -31 -31 -21 6 24 12 15 31 23 31 14z m-2689 -21
c-6 -8 -11 -18 -9 -22 4 -16 -13 -54 -24 -54 -7 0 -6 5 2 15 6 8 9 18 6 23 -5
9 20 52 31 52 3 0 0 -6 -6 -14z m2334 -36 c-27 -27 -54 -50 -59 -50 -9 0 94
100 104 100 2 0 -18 -22 -45 -50z m-2205 18 c0 -19 -2 -20 -10 -8 -13 19 -13
30 0 30 6 0 10 -10 10 -22z m2760 -13 c19 -19 39 -35 44 -35 6 0 19 -12 30
-26 l19 -26 -28 18 c-23 15 -28 15 -37 3 -7 -10 -8 -8 -3 9 3 12 3 22 -2 22
-10 0 -73 56 -73 64 0 14 19 3 50 -29z m-2832 8 c-2 -10 -11 -19 -21 -21 -16
-3 -17 -1 -5 17 16 25 31 27 26 4z m1242 7 c8 -5 11 -10 5 -10 -5 0 -17 5 -25
10 -8 5 -10 10 -5 10 6 0 17 -5 25 -10z m930 1 c0 -12 -31 -43 -37 -37 -7 7
16 46 27 46 6 0 10 -4 10 -9z m45 -36 c-35 -35 -57 -42 -39 -13 5 7 7 21 6 31
-2 9 2 17 8 17 6 0 8 -4 5 -10 -9 -15 8 -12 31 4 34 25 28 8 -11 -29z m-2165
28 c0 -5 -10 -19 -21 -33 l-20 -25 16 33 c15 30 25 41 25 25z m2639 -27 c-13
-14 -28 -22 -33 -19 -5 3 2 14 15 24 34 27 45 23 18 -5z m-579 8 c0 -9 -32
-33 -44 -34 -5 0 -1 9 9 20 18 20 35 26 35 14z m-2380 -19 c0 -16 -9 -19 -34
-9 -20 8 -11 24 15 24 10 0 19 -7 19 -15z m3060 11 c0 -3 -4 -8 -10 -11 -5 -3
-10 -1 -10 4 0 6 5 11 10 11 6 0 10 -2 10 -4z m-2710 -45 c-10 -20 -30 -29
-30 -13 0 4 8 18 17 32 19 27 30 12 13 -19z m2236 24 c-12 -9 -15 -15 -7 -15
8 0 2 -9 -12 -20 -14 -11 -29 -20 -33 -20 -4 0 1 9 11 20 10 11 14 20 9 20 -5
0 0 7 10 15 11 8 25 15 30 15 6 0 2 -7 -8 -15z m225 -8 c-10 -9 -11 -8 -5 6 3
10 9 15 12 12 3 -3 0 -11 -7 -18z m229 -30 c0 -22 -5 -34 -14 -34 -12 0 -12
15 0 55 7 23 14 12 14 -21z m-2837 6 c-4 -10 -9 -20 -13 -23 -3 -3 -14 -16
-23 -30 -9 -13 -17 -19 -17 -12 0 11 50 82 57 82 1 0 -1 -8 -4 -17z m37 13 c0
-3 -4 -8 -10 -11 -5 -3 -10 -1 -10 4 0 6 5 11 10 11 6 0 10 -2 10 -4z m2840
-17 c0 -6 -4 -7 -10 -4 -5 3 -10 11 -10 16 0 6 5 7 10 4 6 -3 10 -11 10 -16z
m30 0 c0 -6 -4 -7 -10 -4 -5 3 -10 11 -10 16 0 6 5 7 10 4 6 -3 10 -11 10 -16z
m-3155 -8 c-3 -6 -13 -11 -20 -11 -9 0 -12 -6 -9 -17 5 -14 4 -15 -4 -4 -6 8
-17 11 -26 8 -30 -12 -16 2 22 22 38 20 49 20 37 2z m3035 15 c0 -3 -4 -8 -10
-11 -5 -3 -10 -1 -10 4 0 6 5 11 10 11 6 0 10 -2 10 -4z m-2620 -14 c0 -12
-39 -52 -50 -52 -6 0 2 14 17 30 28 32 33 35 33 22z m-50 -16 c0 -3 -4 -8 -10
-11 -5 -3 -10 -1 -10 4 0 6 5 11 10 11 6 0 10 -2 10 -4z m2343 -16 c-3 -12 -8
-19 -11 -16 -5 6 5 36 12 36 2 0 2 -9 -1 -20z m157 -9 c-6 -12 -9 -25 -6 -29
2 -4 -4 -23 -15 -42 l-19 -35 6 30 c7 37 36 107 41 101 3 -2 0 -14 -7 -25z
m-2600 9 c0 -5 -4 -10 -10 -10 -5 0 -10 5 -10 10 0 6 5 10 10 10 6 0 10 -4 10
-10z m2137 -12 c-3 -8 -6 -5 -6 6 -1 11 2 17 5 13 3 -3 4 -12 1 -19z m43 18
c0 -2 -7 -7 -16 -10 -8 -3 -12 -2 -9 4 6 10 25 14 25 6z m-70 -38 c0 -19 -16
-5 -17 14 -2 18 0 20 7 8 5 -8 10 -18 10 -22z m-2129 -15 c-12 -20 -14 -14 -5
12 4 9 9 14 11 11 3 -2 0 -13 -6 -23z m2238 23 c-16 -16 -79 -54 -79 -48 0 5
17 18 38 30 35 21 50 27 41 18z m-2533 -26 c-22 -11 -41 -18 -43 -16 -5 4 59
36 72 35 6 0 -8 -9 -29 -19z m2229 0 c3 -5 1 -10 -4 -10 -6 0 -11 5 -11 10 0
6 2 10 4 10 3 0 8 -4 11 -10z m108 -32 c-4 -18 -3 -20 6 -8 6 8 14 15 18 16 4
0 16 4 25 8 11 5 23 1 37 -13 11 -11 15 -21 9 -23 -6 -2 -10 -16 -10 -31 0
-15 -5 -24 -10 -21 -5 3 -6 15 -2 27 7 22 7 22 -15 3 -12 -11 -29 -21 -39 -22
-9 0 -24 -3 -32 -5 -11 -3 -14 4 -11 31 2 30 16 60 26 60 2 0 1 -10 -2 -22z
m234 -12 c-15 -31 -22 -25 -13 9 4 14 11 23 15 20 5 -3 4 -16 -2 -29z m-842
-5 c-22 -21 -65 -37 -65 -24 0 5 17 16 38 25 48 22 50 22 27 -1z m-1699 -43
c-8 -19 -23 -41 -33 -49 -17 -13 -17 -12 0 8 11 12 16 27 12 33 -6 10 24 55
32 47 2 -2 -3 -20 -11 -39z m2234 38 c0 -3 -4 -8 -10 -11 -5 -3 -10 -1 -10 4
0 6 5 11 10 11 6 0 10 -2 10 -4z m-319 -30 c31 5 35 4 35 -17 0 -29 -24 -59
-42 -52 -17 6 -18 30 -1 37 6 2 1 4 -13 3 -13 -1 -25 3 -25 10 0 6 -3 15 -7
19 -5 4 -8 12 -8 18 0 6 6 3 14 -6 9 -13 22 -16 47 -12z m-2031 -20 c0 -3 -4
-8 -10 -11 -5 -3 -10 -1 -10 4 0 6 5 11 10 11 6 0 10 -2 10 -4z m2396 -7 c3
-6 -2 -18 -11 -27 -10 -10 -15 -12 -11 -5 3 6 2 14 -4 18 -5 3 -10 10 -10 16
0 13 27 11 36 -2z m41 -3 c0 -8 -5 -14 -10 -13 -5 1 -12 -4 -15 -12 -3 -8 0
-11 7 -7 6 4 11 2 11 -4 0 -7 -6 -10 -14 -7 -7 3 -19 0 -26 -6 -19 -18 6 27
26 47 19 20 21 20 21 2z m265 -28 c-8 -8 -9 -4 -5 13 4 13 8 18 11 10 2 -7 -1
-18 -6 -23z m-2862 4 c0 9 3 9 9 -2 6 -8 7 -18 5 -22 -3 -4 -2 -13 2 -19 5 -8
8 -8 13 0 5 7 18 -1 37 -21 28 -32 28 -32 2 -9 -16 14 -31 22 -34 19 -7 -8 45
-63 66 -71 8 -3 -8 -4 -35 -2 -28 2 -61 8 -75 14 -20 8 -16 9 25 6 l50 -4 -25
19 c-14 11 -21 20 -15 20 5 0 -9 19 -30 41 -27 28 -33 38 -17 30 17 -9 22 -9
22 1z m86 -35 c4 -4 0 -7 -9 -7 -9 0 -18 4 -21 9 -7 10 20 9 30 -2z m2108 -27
c-6 -6 -10 -3 -10 10 0 13 4 16 10 10 7 -7 7 -13 0 -20z m556 -7 c0 -20 -3
-33 -7 -29 -8 8 -12 48 -6 59 9 15 13 6 13 -30z m68 -7 c-1 -13 -10 -29 -20
-35 -21 -13 -21 -13 -7 28 13 37 30 41 27 7z m-1025 -8 c4 1 16 -7 27 -18 20
-20 66 -29 55 -10 -3 6 -2 10 4 10 5 0 13 -4 16 -10 3 -5 1 -10 -4 -10 -6 0
-11 -12 -11 -27 0 -45 -11 -72 -31 -78 -11 -4 -16 -11 -13 -17 4 -7 2 -8 -4
-4 -6 4 -8 14 -5 24 6 16 6 16 -10 0 -9 -9 -17 -19 -17 -22 0 -3 -8 -15 -17
-26 -10 -11 -18 -24 -19 -28 0 -4 -4 -15 -8 -24 -9 -19 -46 -25 -46 -8 0 6 5
10 10 10 18 0 10 49 -10 63 -11 8 -17 17 -12 21 4 5 0 7 -8 5 -8 -1 -23 1 -34
6 -11 5 -21 3 -26 -4 -11 -19 -22 35 -15 70 5 22 2 31 -14 41 -28 17 -26 33 4
33 14 0 25 -3 25 -7 0 -5 7 -8 16 -8 10 0 14 5 10 15 -4 12 -2 13 12 7 11 -6
28 -5 47 3 22 10 35 10 50 2 11 -6 23 -10 28 -9z m814 -25 c-3 -10 -5 -4 -5
12 0 17 2 24 5 18 2 -7 2 -21 0 -30z m-447 18 c0 -5 -7 -12 -16 -15 -14 -5
-15 -4 -4 9 14 17 20 19 20 6z m-2162 -37 c12 -4 22 -11 22 -16 0 -5 -6 -6
-12 -2 -8 4 -10 3 -5 -2 5 -5 12 -9 15 -10 14 -1 62 -24 62 -28 0 -11 -78 19
-103 40 -28 24 -22 29 21 18z m2502 -39 c10 -15 7 -14 -13 4 -15 14 -27 29
-27 33 0 10 16 -5 40 -37z m216 8 c-8 -15 -15 -25 -16 -21 0 12 23 58 27 54 3
-2 -2 -17 -11 -33z m-656 7 c0 -5 -5 -10 -11 -10 -5 0 -7 5 -4 10 3 6 8 10 11
10 2 0 4 -4 4 -10z m-1034 -12 c4 -6 3 -8 -4 -4 -6 3 -13 2 -17 -4 -3 -5 -12
-10 -18 -10 -7 0 -3 7 7 15 24 18 23 18 32 3z m1439 2 c3 -5 1 -10 -4 -10 -6
0 -11 5 -11 10 0 6 2 10 4 10 3 0 8 -4 11 -10z m-1496 -17 c0 -11 -3 -13 -6
-5 -9 22 -31 13 -29 -12 1 -18 4 -22 14 -14 15 13 16 -4 0 -20 -14 -14 4 -62
24 -62 13 0 38 -44 38 -65 0 -6 6 -23 13 -39 10 -22 17 -26 40 -22 22 4 27 2
27 -14 0 -10 -4 -22 -10 -25 -5 -3 -10 1 -10 10 0 11 -7 16 -22 14 -13 -2 -42
7 -65 19 -24 12 -43 19 -43 15 -1 -5 -7 7 -15 24 -10 23 -19 31 -29 27 -21 -8
-20 6 2 22 16 12 16 13 0 19 -22 9 -24 45 -4 45 8 0 18 5 21 10 4 7 -2 9 -19
4 -20 -5 -26 -2 -26 11 0 9 9 19 20 22 11 3 17 10 14 15 -8 12 25 37 49 38 10
0 17 -7 16 -17z m1413 -49 c-3 -25 -7 -42 -11 -36 -3 6 -5 32 -3 58 3 25 7 42
11 36 3 -6 5 -32 3 -58z m-342 46 c0 -5 -2 -10 -4 -10 -3 0 -8 5 -11 10 -3 6
-1 10 4 10 6 0 11 -4 11 -10z m420 -10 c0 -5 -4 -10 -10 -10 -5 0 -10 5 -10
10 0 6 5 10 10 10 6 0 10 -4 10 -10z m317 -12 c-3 -8 -6 -5 -6 6 -1 11 2 17 5
13 3 -3 4 -12 1 -19z m-697 -3 c-7 -9 -15 -13 -19 -10 -3 3 1 10 9 15 21 14
24 12 10 -5z m-9 -36 c-24 -22 -46 -37 -49 -34 -3 3 5 13 19 22 13 10 33 27
44 38 11 12 22 19 25 17 3 -2 -15 -22 -39 -43z m222 26 c-3 -9 -8 -14 -10 -11
-3 3 -2 9 2 15 9 16 15 13 8 -4z m-248 -15 c-3 -5 -12 -10 -18 -10 -7 0 -6 4
3 10 19 12 23 12 15 0z m374 -50 c1 -12 -2 -12 -15 2 -11 11 -14 23 -8 39 l8
24 7 -25 c4 -14 7 -32 8 -40z m134 -40 l6 -35 -19 40 c-10 22 -18 51 -18 65 0
24 0 24 12 -5 7 -16 16 -46 19 -65z m67 57 c0 -18 -2 -19 -10 -7 -13 20 -13
43 0 35 6 -3 10 -16 10 -28z m-2380 8 c0 -8 -4 -15 -10 -15 -5 0 -7 7 -4 15 4
8 8 15 10 15 2 0 4 -7 4 -15z m1765 5 c3 -5 1 -10 -4 -10 -6 0 -11 5 -11 10 0
6 2 10 4 10 3 0 8 -4 11 -10z m124 -7 c-26 -34 -49 -43 -49 -20 0 7 10 17 23
23 33 17 41 16 26 -3z m-1319 -13 c0 -5 -4 -10 -10 -10 -5 0 -10 5 -10 10 0 6
5 10 10 10 6 0 10 -4 10 -10z m-563 -54 c-5 -29 -5 -28 13 9 23 50 26 20 3
-37 -16 -41 -17 -42 -24 -18 -12 41 -10 92 2 84 6 -3 9 -20 6 -38z m529 22
c-3 -13 -6 -29 -6 -35 0 -7 -4 -13 -10 -13 -5 0 -10 16 -10 35 0 26 4 35 16
35 12 0 15 -6 10 -22z m1631 -30 c-3 -7 -5 -2 -5 12 0 14 2 19 5 13 2 -7 2
-19 0 -25z m-2647 2 c-24 -15 -37 -11 -16 5 11 8 22 12 25 9 3 -3 -1 -9 -9
-14z m87 6 c0 -8 -6 -12 -14 -9 -8 3 -25 -5 -38 -17 -13 -12 -30 -20 -37 -17
-9 4 -7 6 4 6 10 1 22 10 28 20 5 11 20 22 32 24 13 2 23 5 24 6 0 0 1 -5 1
-13z m1001 -6 c-14 -22 -24 -19 -15 5 4 8 11 15 17 15 6 0 6 -7 -2 -20z m1295
5 c-3 -9 -8 -14 -10 -11 -3 3 -2 9 2 15 9 16 15 13 8 -4z m-1333 -15 c-6 -11
-9 -24 -7 -28 7 -12 -11 -52 -24 -52 -6 0 -9 7 -5 15 3 8 1 15 -4 15 -17 0
-11 28 8 39 9 6 13 11 7 11 -11 0 16 20 28 20 4 0 3 -9 -3 -20z m-687 3 c-7
-2 -19 -2 -25 0 -7 3 -2 5 12 5 14 0 19 -2 13 -5z m1906 -6 c-17 -14 -80 -45
-65 -33 15 12 16 16 5 17 -8 1 -3 5 11 9 26 8 56 12 49 7z m-2179 -12 c0 -2
-10 -10 -22 -16 -21 -11 -22 -11 -9 4 13 16 31 23 31 12z m2267 -29 c-12 -18
-23 -30 -25 -25 -4 10 28 59 39 59 4 0 -2 -15 -14 -34z m63 4 c-6 -11 -13 -20
-16 -20 -2 0 0 9 6 20 6 11 13 20 16 20 2 0 0 -9 -6 -20z m1616 5 c-1 -8 -5
-17 -8 -21 -5 -4 -4 16 1 34 3 9 9 -1 7 -13z m-1458 -19 c-6 -14 -17 -27 -25
-30 -9 -4 -7 4 7 24 26 36 33 39 18 6z m1362 -25 c5 -17 5 -31 0 -31 -10 0
-20 26 -20 52 0 28 8 19 20 -21z m-1693 9 c-7 -10 -27 -29 -43 -42 -27 -21
-27 -20 6 19 36 42 62 59 37 23z m-387 -4 c0 -2 -7 -6 -15 -10 -8 -3 -15 -1
-15 4 0 6 7 10 15 10 8 0 15 -2 15 -4z m415 -6 c-3 -5 -11 -10 -16 -10 -6 0
-7 5 -4 10 3 6 11 10 16 10 6 0 7 -4 4 -10z m-1946 -14 c-10 -10 -148 -53
-143 -45 8 13 64 41 64 32 0 -4 4 -3 10 3 5 5 23 10 41 11 17 1 30 1 28 -1z
m81 -11 c0 -8 5 -15 12 -15 6 0 9 -3 6 -6 -4 -3 -15 -1 -25 5 -14 7 -31 6 -59
-4 -21 -8 -50 -14 -64 -14 -17 1 -11 5 20 14 25 7 56 17 70 23 34 15 40 14 40
-3z m968 -7 c20 -20 14 -27 -13 -15 -14 7 -25 15 -25 20 0 11 25 8 38 -5z
m-998 -38 c12 -8 12 -10 -5 -11 -11 0 -29 -2 -40 -4 -99 -18 -110 -13 -25 11
57 16 52 15 70 4z m3560 -12 c0 -18 -2 -20 -9 -8 -6 8 -7 18 -5 22 9 14 14 9
14 -14z m-3590 -28 c-18 -12 -43 -13 -36 -2 2 4 15 8 28 9 18 2 19 0 8 -7z
m3594 -29 c-5 -6 -34 20 -34 30 0 5 8 1 18 -8 10 -10 17 -20 16 -22z m-2228 2
c-10 -10 -19 5 -10 18 6 11 8 11 12 0 2 -7 1 -15 -2 -18z m-1456 0 c0 -1 -8
-7 -18 -12 -13 -7 -19 -6 -19 2 0 7 9 13 19 13 10 0 18 -1 18 -3z m350 3 c0
-2 -8 -10 -17 -17 -16 -13 -17 -12 -4 4 13 16 21 21 21 13z m1070 -12 c0 -2
-7 -4 -15 -4 -8 0 -15 4 -15 10 0 5 7 7 15 4 8 -4 15 -8 15 -10z m-1260 -64
c-24 -15 -37 -11 -16 5 11 8 22 12 25 9 3 -3 -1 -9 -9 -14z m131 -191 c-9 -23
-10 -23 -10 -2 -1 12 2 30 6 40 6 15 8 15 11 2 1 -8 -2 -26 -7 -40z m76 -1
c-3 -7 -5 -2 -5 12 0 14 2 19 5 13 2 -7 2 -19 0 -25z m1603 -852 c0 -2 -8 -10
-17 -17 -16 -13 -17 -12 -4 4 13 16 21 21 21 13z m560 -65 c0 -5 -9 -11 -21
-14 -16 -4 -18 -3 -8 9 13 16 29 19 29 5z m-500 -56 c-7 -8 -17 -15 -23 -15
-5 0 -2 9 8 20 21 23 35 19 15 -5z m-125 -5 c-5 -15 -2 -20 12 -21 14 0 13 -2
-5 -10 -13 -5 -26 -18 -29 -29 -6 -21 -6 -21 -41 -25 -13 -1 -43 -16 -67 -34
-46 -33 -55 -37 -55 -21 0 6 6 10 13 10 7 0 24 18 37 39 15 23 28 34 32 28 5
-8 13 -6 26 6 10 9 25 17 33 17 8 0 20 14 26 30 12 33 28 42 18 10z m65 -10
c0 -5 -5 -10 -11 -10 -5 0 -7 5 -4 10 3 6 8 10 11 10 2 0 4 -4 4 -10z m-202
-46 c-26 -25 -45 -50 -42 -55 3 -5 0 -9 -5 -9 -23 0 0 45 43 82 52 45 54 31 4
-18z m632 16 c0 -5 -4 -10 -10 -10 -5 0 -10 5 -10 10 0 6 5 10 10 10 6 0 10
-4 10 -10z m120 -30 c0 -5 -9 -10 -20 -10 -11 0 -20 5 -20 10 0 6 9 10 20 10
11 0 20 -4 20 -10z m-785 -119 c3 -5 1 -12 -4 -15 -5 -3 -11 1 -15 9 -6 16 9
21 19 6z m479 -156 c3 -8 1 -15 -4 -15 -6 0 -10 7 -10 15 0 8 2 15 4 15 2 0 6
-7 10 -15z"/>
<path d="M2790 2960 c0 -5 5 -10 10 -10 6 0 10 5 10 10 0 6 -4 10 -10 10 -5 0
-10 -4 -10 -10z"/>
<path d="M3024 2953 c-5 -18 -10 -20 -30 -13 -19 8 -24 6 -24 -6 0 -8 4 -13 9
-10 5 3 11 -1 14 -8 4 -9 -1 -17 -11 -19 -13 -4 -12 -5 4 -6 12 0 27 6 34 14
16 20 28 19 32 -2 3 -11 6 -5 9 14 3 18 3 31 1 28 -3 -3 -11 3 -18 13 -13 16
-14 15 -20 -5z"/>
<path d="M2775 2920 c3 -5 10 -10 16 -10 5 0 9 5 9 10 0 6 -7 10 -16 10 -8 0
-12 -4 -9 -10z"/>
<path d="M2930 2904 c0 -9 5 -14 12 -12 18 6 21 28 4 28 -9 0 -16 -7 -16 -16z"/>
<path d="M2820 2878 c0 -5 7 -8 16 -8 9 0 25 -10 36 -22 19 -22 20 -22 17 -3
-2 11 0 25 4 31 5 9 -5 12 -33 10 -22 0 -40 -4 -40 -8z"/>
<path d="M2875 2800 c-3 -5 3 -10 15 -10 12 0 18 5 15 10 -3 6 -10 10 -15 10
-5 0 -12 -4 -15 -10z"/>
<path d="M3135 2630 c3 -5 8 -10 11 -10 2 0 4 5 4 10 0 6 -5 10 -11 10 -5 0
-7 -4 -4 -10z"/>
<path d="M3170 2630 c0 -5 5 -10 10 -10 6 0 10 5 10 10 0 6 -4 10 -10 10 -5 0
-10 -4 -10 -10z"/>
<path d="M2927 2593 c-4 -3 -7 -13 -7 -22 1 -13 3 -13 11 2 11 19 8 33 -4 20z"/>
<path d="M2885 2560 c-8 -13 4 -32 16 -25 12 8 12 35 0 35 -6 0 -13 -4 -16
-10z"/>
<path d="M2907 2451 c-3 -11 -1 -23 3 -26 14 -8 22 13 12 31 -8 14 -10 14 -15
-5z"/>
<path d="M2873 2445 c0 -8 4 -12 9 -9 5 3 6 10 3 15 -9 13 -12 11 -12 -6z"/>
<path d="M2416 2968 c3 -4 9 -8 15 -8 5 0 9 4 9 8 0 5 -7 9 -15 9 -8 0 -12 -4
-9 -9z"/>
<path d="M2374 2919 c-3 -6 -2 -15 3 -20 5 -5 9 -1 10 11 2 22 -2 25 -13 9z"/>
<path d="M4720 2779 c0 -5 5 -7 10 -4 6 3 10 8 10 11 0 2 -4 4 -10 4 -5 0 -10
-5 -10 -11z"/>
<path d="M4350 2559 c0 -5 5 -7 10 -4 6 3 10 8 10 11 0 2 -4 4 -10 4 -5 0 -10
-5 -10 -11z"/>
<path d="M4350 2529 c0 -5 5 -7 10 -4 6 3 10 8 10 11 0 2 -4 4 -10 4 -5 0 -10
-5 -10 -11z"/>
<path d="M3580 2310 c0 -5 7 -10 16 -10 8 0 12 5 9 10 -3 6 -10 10 -16 10 -5
0 -9 -4 -9 -10z"/>
<path d="M692 3557 c-11 -13 -42 -81 -42 -92 0 -3 6 -5 14 -5 18 0 55 51 58
80 3 27 -14 36 -30 17z"/>
<path d="M5225 3558 c-13 -38 -27 -129 -26 -166 1 -23 -5 -52 -13 -65 -9 -14
-12 -28 -7 -36 7 -11 11 -10 19 5 5 11 7 25 5 32 -3 6 0 12 6 12 6 0 8 19 5
50 -3 33 -1 50 7 50 6 0 9 7 5 15 -3 8 -1 15 4 15 6 0 10 10 10 23 0 12 7 33
16 45 16 24 7 30 -15 10 -11 -11 -13 -10 -8 5 4 9 4 17 1 17 -2 0 -7 -6 -9
-12z"/>
<path d="M5025 3550 c-3 -5 -3 -10 0 -10 4 0 -1 -8 -11 -17 -16 -17 -16 -18 7
-23 15 -4 25 -2 27 7 2 7 8 10 14 7 6 -4 6 1 -1 14 -14 27 -28 35 -36 22z"/>
<path d="M5070 3553 c0 -5 5 -15 10 -23 8 -12 10 -11 10 8 0 12 -4 22 -10 22
-5 0 -10 -3 -10 -7z"/>
<path d="M5486 3535 c-15 -22 -15 -24 0 -18 15 5 14 3 -1 -21 -10 -16 -21 -23
-24 -17 -4 7 -21 0 -44 -16 -20 -14 -35 -28 -33 -31 3 -2 19 6 35 18 17 11 35
19 40 16 17 -11 66 15 78 40 10 22 10 25 -3 20 -12 -5 -19 5 -15 27 2 16 -18
6 -33 -18z"/>
<path d="M5410 3540 c0 -5 5 -10 11 -10 5 0 7 5 4 10 -3 6 -8 10 -11 10 -2 0
-4 -4 -4 -10z"/>
<path d="M5350 3525 c-7 -9 -8 -15 -2 -15 5 0 12 7 16 15 3 8 4 15 2 15 -2 0
-9 -7 -16 -15z"/>
<path d="M5270 3515 c-9 -11 -10 -15 -1 -15 8 0 10 -8 6 -22 -6 -22 -6 -22 9
-4 29 36 15 76 -14 41z"/>
<path d="M5160 3491 c0 -11 3 -27 6 -36 10 -24 22 0 16 31 -5 28 -22 32 -22 5z"/>
<path d="M5359 3471 l-24 -20 27 -1 c29 0 46 16 31 31 -6 6 -19 2 -34 -10z"/>
<path d="M5030 3461 c0 -11 5 -23 10 -26 6 -3 10 3 10 14 0 11 -4 23 -10 26
-5 3 -10 -3 -10 -14z"/>
<path d="M0 3216 c0 -252 0 -254 21 -249 11 3 27 16 35 28 10 16 21 21 38 18
13 -3 27 0 30 6 4 6 18 11 32 11 13 0 64 15 112 34 48 18 98 37 112 41 14 3
54 21 90 40 36 18 82 38 103 45 59 19 38 22 -55 9 -71 -10 -96 -9 -163 5 -92
19 -131 45 -223 151 -55 63 -112 115 -127 115 -3 0 -5 -114 -5 -254z"/>
<path d="M880 3444 c0 -11 74 -182 83 -190 5 -5 143 69 162 87 5 6 4 9 -5 9
-7 0 -21 7 -30 15 -19 17 -107 65 -121 65 -5 0 -9 -8 -9 -17 -1 -44 -17 -45
-49 -2 -17 24 -31 38 -31 33z"/>
<path d="M4936 3441 c-4 -7 -5 -15 -2 -18 9 -9 19 4 14 18 -4 11 -6 11 -12 0z"/>
<path d="M5306 3415 c-22 -52 -19 -58 5 -12 11 22 18 41 15 44 -3 3 -12 -12
-20 -32z"/>
<path d="M4860 3430 c0 -5 5 -10 10 -10 6 0 10 5 10 10 0 6 -4 10 -10 10 -5 0
-10 -4 -10 -10z"/>
<path d="M5020 3409 c0 -5 5 -7 10 -4 6 3 10 8 10 11 0 2 -4 4 -10 4 -5 0 -10
-5 -10 -11z"/>
<path d="M5247 3409 c-13 -8 -17 -22 -16 -57 0 -26 -4 -63 -10 -82 -14 -45
-14 -45 6 -29 15 13 15 12 5 -8 -17 -32 -15 -41 4 -15 8 12 14 28 11 35 -2 6
1 23 8 37 6 14 11 32 10 40 -1 8 2 25 7 38 11 32 -2 54 -25 41z"/>
<path d="M4865 3393 c4 -10 10 -30 13 -46 2 -15 8 -30 14 -33 10 -6 6 41 -5
52 -4 4 -7 16 -7 26 0 10 -5 18 -11 18 -7 0 -8 -7 -4 -17z"/>
<path d="M5335 3390 c-23 -26 -8 -26 25 0 18 14 21 20 9 20 -9 0 -24 -9 -34
-20z"/>
<path d="M4962 3370 c0 -14 2 -19 5 -12 2 6 2 18 0 25 -3 6 -5 1 -5 -13z"/>
<path d="M5335 3357 c-17 -13 -17 -14 6 -20 13 -3 25 -4 28 -2 2 3 -1 5 -7 5
-6 0 -9 7 -6 15 7 19 3 19 -21 2z"/>
<path d="M5288 3353 c0 -5 -2 -12 -3 -18 -1 -5 -5 -18 -10 -28 -4 -10 -4 -21
-1 -24 4 -4 9 3 13 15 3 12 9 20 13 17 5 -3 11 -1 15 5 3 5 -1 10 -11 10 -13
0 -14 3 -4 15 9 10 9 15 1 15 -6 0 -12 -3 -13 -7z"/>
<path d="M4844 3324 c3 -9 6 -18 6 -20 0 -2 7 -4 15 -4 13 0 13 3 3 20 -15 24
-33 27 -24 4z"/>
<path d="M4908 3310 c-3 -17 -1 -33 4 -36 4 -3 8 11 8 30 0 44 -6 47 -12 6z"/>
<path d="M5385 3310 c27 -12 35 -12 35 0 0 6 -12 10 -27 9 -25 0 -26 -1 -8 -9z"/>
<path d="M4820 3247 c0 -7 9 -18 20 -24 16 -11 18 -10 14 2 -4 8 -10 15 -16
15 -5 0 -6 5 -3 10 3 6 1 10 -4 10 -6 0 -11 -6 -11 -13z"/>
<path d="M660 3243 c-8 -4 -21 -13 -30 -21 -13 -14 -11 -15 23 -9 21 3 37 2
37 -4 0 -5 -11 -9 -25 -9 -15 0 -31 -9 -41 -25 -18 -27 -12 -45 16 -45 10 0
22 -4 25 -10 3 -6 -5 -10 -19 -10 -14 0 -28 -4 -31 -10 -9 -14 15 -12 68 6 64
22 68 30 49 91 -17 53 -31 62 -72 46z m15 -72 c-3 -6 -16 -11 -28 -11 -21 1
-21 1 3 15 27 14 36 13 25 -4z"/>
<path d="M4780 3230 c8 -5 20 -10 25 -10 6 0 3 5 -5 10 -8 5 -19 10 -25 10 -5
0 -3 -5 5 -10z"/>
<path d="M5267 3213 c-4 -3 -7 -11 -7 -17 0 -6 5 -5 12 2 6 6 9 14 7 17 -3 3
-9 2 -12 -2z"/>
<path d="M5287 3191 c-25 -42 -21 -50 9 -18 16 17 23 32 17 38 -5 5 -16 -3
-26 -20z"/>
<path d="M4810 3206 c0 -2 7 -6 15 -10 8 -3 15 -1 15 4 0 6 -7 10 -15 10 -8 0
-15 -2 -15 -4z"/>
<path d="M5233 3183 c-15 -5 -18 -63 -4 -63 9 0 27 58 19 64 -1 2 -9 1 -15 -1z"/>
<path d="M5187 3173 c-4 -3 -7 -11 -7 -17 0 -6 5 -5 12 2 6 6 9 14 7 17 -3 3
-9 2 -12 -2z"/>
<path d="M5192 3132 c-8 -13 -11 -31 -7 -39 9 -26 27 0 23 33 l-3 29 -13 -23z"/>
<path d="M4685 3118 c-13 -10 -32 -18 -42 -18 -18 0 -67 -29 -50 -30 4 0 33 7
65 15 31 8 69 17 85 20 36 7 34 22 -4 27 -20 3 -38 -2 -54 -14z"/>
<path d="M4788 3103 c7 -3 16 -2 19 1 4 3 -2 6 -13 5 -11 0 -14 -3 -6 -6z"/>
<path d="M546 3092 c-3 -5 4 -12 15 -15 12 -3 18 -10 14 -16 -3 -6 -1 -11 5
-11 18 0 7 44 -12 48 -9 2 -19 -1 -22 -6z"/>
<path d="M4648 3073 c-23 -6 -23 -19 0 -25 12 -4 18 1 19 13 1 11 1 18 0 18
-1 -1 -10 -3 -19 -6z"/>
<path d="M1482 3044 c-7 -8 -12 -22 -9 -32 3 -13 7 -10 16 12 13 33 11 40 -7
20z"/>
<path d="M356 3035 c7 -18 0 -19 -26 -3 -10 7 -23 8 -27 4 -4 -5 -2 -11 5 -13
23 -9 12 -23 -13 -17 -21 5 -24 3 -19 -11 5 -13 3 -16 -7 -13 -26 10 -67 -24
-77 -63 -5 -21 -7 -39 -3 -41 3 -2 17 -16 31 -32 l25 -29 -23 6 c-19 4 -23 2
-19 -11 20 -61 20 -65 6 -60 -8 3 -13 12 -11 20 6 34 -65 52 -76 19 -3 -8 0
-11 6 -7 6 3 13 2 17 -4 9 -14 -18 -13 -33 2 -22 22 -12 -4 13 -34 14 -16 22
-35 19 -40 -5 -7 -2 -8 6 -3 7 4 16 2 20 -5 6 -9 15 -8 40 5 18 9 29 12 26 6
-4 -6 -1 -11 6 -12 7 0 2 -4 -10 -10 -13 -5 -28 -7 -32 -4 -22 13 1 -25 38
-65 23 -25 45 -53 48 -62 3 -10 9 -18 13 -18 4 0 26 -18 49 -40 23 -23 42 -35
43 -28 0 7 4 3 9 -10 10 -25 38 -40 49 -26 3 5 22 10 41 12 19 1 46 5 60 8 23
5 24 4 9 -11 -15 -15 -45 -23 -96 -24 -29 -1 -30 -17 -3 -24 11 -3 19 -11 18
-19 -5 -23 35 -8 71 26 24 24 31 39 27 53 -6 18 -13 20 -51 15 -30 -3 -45 -1
-45 7 0 6 5 11 11 11 5 0 7 5 3 12 -4 6 -3 8 3 5 6 -4 18 2 27 12 17 18 17 22
-4 67 -26 59 -37 67 -63 43 -25 -23 -33 -18 -39 22 -6 38 21 74 32 43 4 -11 9
-14 13 -7 4 6 4 18 1 27 -7 19 -60 47 -78 40 -12 -5 -63 32 -55 40 2 2 21 6
42 9 51 7 55 13 18 31 -35 18 -45 20 -36 6 10 -17 -27 -11 -48 8 -19 16 -20
16 -15 -5 7 -27 6 -27 -32 -8 -41 21 -49 53 -19 76 13 10 34 19 47 19 13 0 22
6 22 15 0 9 -6 12 -15 9 -8 -4 -15 -1 -15 5 0 13 92 41 105 31 6 -4 21 -4 35
0 21 6 23 8 8 15 -10 4 -18 16 -18 26 0 10 -4 19 -10 19 -5 0 -7 -7 -4 -15 4
-8 1 -15 -5 -15 -7 0 -14 7 -17 15 -4 8 -10 15 -15 15 -4 0 -6 -7 -3 -15z
m-37 -274 c-16 -5 -33 15 -24 30 6 9 12 7 22 -7 9 -13 10 -20 2 -23z m-49 19
c0 -5 -10 -10 -22 -10 -19 0 -20 2 -8 10 19 13 30 13 30 0z m-90 -50 c0 -5 -2
-10 -4 -10 -3 0 -8 5 -11 10 -3 6 -1 10 4 10 6 0 11 -4 11 -10z m210 -65 c24
-29 -33 -139 -68 -127 -6 2 -12 15 -12 28 0 16 -6 24 -17 24 -15 0 -16 2 -3 9
8 6 17 8 20 6 3 -2 17 14 30 36 27 43 32 46 50 24z m-75 -43 c-3 -3 -11 0 -18
7 -9 10 -8 11 6 5 10 -3 15 -9 12 -12z m136 -49 c8 -22 7 -30 -7 -40 -17 -12
-17 -13 0 -13 29 0 8 -19 -30 -26 -47 -9 -51 -1 -20 36 14 17 26 40 26 51 0
28 19 23 31 -8z m39 -7 c0 -3 -4 -8 -10 -11 -5 -3 -10 -1 -10 4 0 6 5 11 10
11 6 0 10 -2 10 -4z"/>
<path d="M520 3040 c0 -5 7 -10 15 -10 8 0 15 5 15 10 0 6 -7 10 -15 10 -8 0
-15 -4 -15 -10z"/>
<path d="M4605 3040 c-3 -5 1 -10 10 -10 9 0 13 5 10 10 -3 6 -8 10 -10 10 -2
0 -7 -4 -10 -10z"/>
<path d="M2350 3030 c0 -5 5 -10 11 -10 5 0 7 5 4 10 -3 6 -8 10 -11 10 -2 0
-4 -4 -4 -10z"/>
<path d="M470 3021 c0 -12 39 -21 45 -11 3 4 -2 11 -11 14 -22 8 -34 7 -34 -3z"/>
<path d="M5310 2989 c-22 -18 -22 -19 -3 -10 12 6 25 16 28 21 9 15 3 12 -25
-11z"/>
<path d="M5347 2984 c-8 -8 1 -24 12 -24 4 0 8 7 8 15 0 16 -9 20 -20 9z"/>
<path d="M3440 2960 c6 -11 12 -20 14 -20 2 0 2 9 -1 20 -3 11 -9 20 -15 20
-5 0 -4 -9 2 -20z"/>
<path d="M2 2896 c0 -14 3 -25 7 -24 3 1 13 -1 21 -4 53 -20 141 -40 147 -35
3 4 -1 7 -10 7 -10 0 -17 7 -17 15 0 8 -8 16 -17 17 -10 0 -22 2 -28 3 -8 1
-75 31 -96 42 -4 2 -6 -7 -7 -21z"/>
<path d="M128 2903 c7 -3 16 -2 19 1 4 3 -2 6 -13 5 -11 0 -14 -3 -6 -6z"/>
<path d="M320 2880 c-11 -7 -5 -10 23 -10 20 0 37 5 37 10 0 13 -40 13 -60 0z"/>
<path d="M4500 2860 c0 -5 5 -10 10 -10 6 0 10 5 10 10 0 6 -4 10 -10 10 -5 0
-10 -4 -10 -10z"/>
<path d="M4466 2845 c-18 -13 -15 -35 5 -35 6 0 7 5 3 11 -3 6 0 15 7 20 7 4
11 10 9 13 -3 2 -13 -2 -24 -9z"/>
<path d="M40 2830 c0 -5 5 -10 11 -10 5 0 7 5 4 10 -3 6 -8 10 -11 10 -2 0 -4
-4 -4 -10z"/>
<path d="M10 2812 c6 -13 14 -21 18 -18 3 4 -2 14 -12 24 -18 16 -18 16 -6 -6z"/>
<path d="M0 2759 c0 -10 9 -19 23 -22 l22 -4 -22 -2 c-15 -1 -23 -7 -23 -20 0
-16 6 -19 43 -15 31 3 37 2 22 -5 -11 -5 -30 -10 -42 -10 -19 -1 -23 -7 -23
-35 0 -33 2 -35 45 -42 42 -6 58 -18 35 -26 -11 -3 84 -108 98 -108 16 0 21
-54 8 -75 -12 -18 -9 -21 33 -35 38 -13 47 -21 51 -45 3 -16 10 -28 15 -27 6
1 10 -5 10 -12 0 -18 63 -106 75 -106 5 0 7 -7 3 -16 -5 -15 0 -16 40 -10 40
6 47 4 61 -16 9 -12 16 -18 16 -13 0 5 20 -11 45 -35 43 -42 61 -90 33 -90 -6
0 1 -14 18 -31 28 -30 28 -31 10 -45 -11 -7 -16 -17 -13 -21 4 -3 7 -4 7 0 0
3 11 -4 25 -17 17 -16 22 -29 18 -44 -5 -20 -2 -21 24 -16 28 6 28 5 27 -41
-1 -26 -7 -51 -14 -55 -9 -6 -10 -12 -1 -26 7 -13 10 -15 11 -5 0 24 29 -20
30 -45 0 -25 38 -45 71 -38 21 5 22 4 6 -6 -15 -10 -16 -13 -2 -26 8 -9 15
-24 15 -35 0 -10 5 -19 10 -19 6 0 16 -11 22 -25 6 -14 18 -25 27 -24 10 0 12
2 4 6 -7 2 -13 9 -13 15 0 6 6 5 15 -2 10 -8 12 -17 7 -22 -15 -15 10 -58 33
-58 17 0 17 -2 5 -10 -10 -6 -11 -10 -2 -10 6 0 12 -4 12 -10 0 -5 20 -29 45
-52 25 -23 45 -48 45 -54 0 -6 14 -14 31 -18 23 -4 29 -10 25 -21 -3 -8 -9
-23 -13 -32 -5 -12 -2 -15 10 -10 9 3 17 3 17 -2 0 -5 16 -25 35 -46 19 -21
32 -42 28 -48 -3 -5 3 -6 15 -3 17 6 19 3 15 -15 -4 -14 -2 -20 4 -16 6 4 16
0 23 -8 7 -8 30 -20 51 -25 22 -6 39 -15 39 -21 0 -6 22 -9 55 -8 30 1 58 0
62 -4 3 -4 14 -7 24 -7 19 0 36 51 23 71 -5 9 0 10 17 6 13 -4 27 -7 32 -7 4
0 7 -7 7 -16 0 -11 -6 -14 -21 -9 -19 6 -20 5 -8 -8 9 -9 18 -12 24 -6 12 12
58 12 50 -1 -3 -5 -13 -7 -23 -4 -9 2 -3 -2 13 -10 26 -13 27 -21 1 -17 -5 1
-6 -6 -2 -15 3 -9 2 -22 -4 -29 -7 -8 -3 -15 14 -25 14 -7 22 -18 19 -26 -6
-17 9 -18 25 -2 9 9 12 9 12 1 0 -11 -31 -27 -55 -28 -5 -1 -20 -7 -33 -13
-12 -7 -28 -9 -35 -5 -6 4 -37 8 -68 8 -52 1 -55 0 -32 -12 14 -7 32 -13 39
-13 8 0 14 -7 14 -15 0 -17 35 -20 46 -4 3 6 17 9 30 6 13 -2 22 1 21 7 -1 6
9 11 22 11 20 0 31 -10 48 -43 1 -2 11 2 23 8 29 15 71 5 64 -15 -7 -17 -34
-21 -34 -5 0 6 -7 10 -15 10 -18 0 -19 -8 -2 -23 31 -28 57 -38 77 -27 28 15
26 -5 -2 -24 -22 -16 -22 -16 -1 -16 11 0 23 7 27 15 7 18 33 20 38 3 5 -14
-19 -42 -36 -44 -24 -3 -56 -17 -56 -25 0 -5 7 -6 15 -3 19 8 19 1 -4 -44 -21
-42 -18 -62 9 -62 10 0 20 -6 23 -12 2 -8 8 -9 13 -4 5 5 4 11 -4 13 -7 3 -19
11 -26 19 -13 12 -12 18 1 46 9 18 30 45 46 60 27 25 31 26 42 11 7 -9 17 -13
25 -8 10 6 9 9 -1 16 -11 7 -11 9 2 9 9 0 19 7 23 15 7 20 36 19 36 -1 0 -8 3
-13 8 -11 4 3 7 -8 8 -24 1 -33 -12 -39 -21 -9 -9 27 -18 25 -56 -9 -31 -29
-31 -29 -8 -33 22 -3 22 -3 3 -22 -19 -19 -18 -19 8 -13 15 4 30 3 33 -3 3 -6
-4 -10 -17 -10 -18 0 -20 -2 -8 -10 8 -5 11 -10 7 -10 -4 0 5 -14 21 -31 18
-20 34 -29 42 -24 9 6 9 9 -1 16 -8 5 -9 9 -3 9 6 0 19 -8 28 -19 15 -16 15
-19 1 -24 -8 -4 -15 -2 -15 3 0 6 -11 5 -25 -2 -30 -13 -34 -33 -5 -25 27 7
94 -18 98 -37 2 -9 10 -16 17 -16 16 0 29 35 20 50 -11 18 6 11 30 -12 21 -20
22 -23 7 -35 -15 -11 -14 -12 9 -13 29 0 46 -27 29 -44 -5 -5 -10 -15 -10 -20
0 -6 7 -3 14 7 12 15 17 16 34 6 17 -11 23 -9 45 17 23 26 26 27 33 11 4 -11
18 -31 31 -45 13 -15 31 -34 39 -43 8 -9 14 -25 14 -37 0 -12 4 -22 9 -22 5 0
19 -16 32 -34 22 -32 25 -34 41 -19 16 14 18 14 24 0 3 -8 1 -25 -5 -36 -7
-13 -8 -22 -1 -26 5 -3 10 -18 10 -33 0 -19 8 -30 27 -39 32 -15 57 0 49 29
-8 34 17 13 29 -23 l12 -34 109 -3 109 -2 -40 35 c-99 89 -195 185 -195 194 0
6 -6 11 -13 11 -7 0 -21 13 -30 30 -10 16 -22 30 -27 30 -4 0 -50 39 -101 87
-132 125 -765 756 -829 828 -30 33 -100 110 -155 170 -91 99 -320 355 -385
429 -83 97 -121 140 -170 196 -30 34 -54 67 -52 72 5 19 -50 120 -69 125 -10
3 -19 10 -19 15 0 5 5 6 10 3 6 -3 10 0 10 6 0 20 -52 129 -62 129 -4 0 -8 9
-8 19 0 14 -5 18 -20 14 -11 -3 -20 -9 -20 -14 0 -5 7 -6 15 -3 18 7 20 -12 3
-23 -13 -7 -18 -8 -71 -11 -17 -1 -26 -6 -22 -13 4 -6 13 -8 21 -5 8 3 14 1
14 -4 0 -6 -11 -10 -24 -10 -25 0 -62 43 -51 60 6 10 -7 14 -31 11 -7 -1 -11
6 -10 16 0 9 -8 22 -20 27 -31 17 -56 45 -49 56 3 5 2 10 -4 10 -5 0 -17 7
-26 16 -9 9 -27 17 -41 17 -13 0 -24 4 -24 9 0 6 9 8 19 5 14 -3 18 -1 14 9
-3 8 -14 14 -24 14 -10 0 -19 5 -19 11 0 6 -12 25 -26 43 -25 29 -26 29 -19 6
8 -25 8 -25 -14 -6 -11 11 -21 25 -21 32 0 7 -9 16 -20 19 -14 4 -20 14 -18
26 2 13 -6 24 -22 33 -14 7 -24 18 -23 24 2 6 -4 9 -12 6 -8 -4 -15 -2 -15 4
0 5 -11 12 -25 14 -19 4 -25 1 -25 -13z m193 -226 c-7 -2 -19 -2 -25 0 -7 3
-2 5 12 5 14 0 19 -2 13 -5z m407 -238 c-7 -9 -15 -13 -17 -11 -7 7 7 26 19
26 6 0 6 -6 -2 -15z m-10 -79 c0 -6 -4 -6 -11 1 -6 6 -17 10 -23 7 -6 -2 -17
8 -23 23 -21 45 -15 49 22 13 19 -19 35 -38 35 -44z m60 -27 c0 -6 -4 -7 -10
-4 -5 3 -10 11 -10 16 0 6 5 7 10 4 6 -3 10 -11 10 -16z m-15 -29 c10 -11 14
-20 9 -20 -5 0 -17 9 -27 20 -9 11 -13 20 -8 20 4 0 16 -9 26 -20z m65 1 c0
-5 -7 -11 -15 -15 -15 -5 -20 5 -8 17 9 10 23 9 23 -2z m-25 -41 c3 -5 2 -10
-4 -10 -5 0 -13 5 -16 10 -3 6 -2 10 4 10 5 0 13 -4 16 -10z m275 -700 c0 -5
-4 -10 -10 -10 -5 0 -10 5 -10 10 0 6 5 10 10 10 6 0 10 -4 10 -10z m214 -96
c6 -15 -9 -54 -20 -54 -18 0 -44 24 -44 40 0 30 53 42 64 14z m56 -95 c0 -5
-7 -9 -15 -9 -8 0 -15 7 -15 15 0 9 6 12 15 9 8 -4 15 -10 15 -15z m70 -3 c0
-11 -19 -15 -25 -6 -3 5 1 10 9 10 9 0 16 -2 16 -4z m-112 -31 c3 -3 -2 -13
-11 -22 -12 -13 -17 -14 -17 -4 0 7 -6 11 -14 8 -13 -5 -36 10 -36 24 0 8 69
3 78 -6z m62 -9 c0 -3 -4 -8 -10 -11 -5 -3 -10 -1 -10 4 0 6 5 11 10 11 6 0
10 -2 10 -4z m260 -45 c0 -10 -9 -21 -20 -24 -20 -5 -19 2 3 31 13 17 17 15
17 -7z m-164 -6 c18 -18 10 -35 -17 -35 -10 0 -19 -7 -19 -15 0 -12 7 -15 33
-10 40 7 60 -5 55 -36 -2 -20 -9 -24 -45 -27 -34 -3 -42 0 -48 17 -4 15 -15
21 -35 21 -35 0 -45 13 -24 31 8 7 22 25 30 41 16 31 47 37 70 13z m94 -90 c0
-14 -4 -25 -9 -25 -10 0 -21 36 -13 44 12 13 22 5 22 -19z m192 -57 c-9 -9
-15 -9 -24 0 -9 9 -7 12 12 12 19 0 21 -3 12 -12z m102 -133 c6 -16 -21 -29
-30 -14 -3 6 -12 8 -20 5 -10 -4 -14 2 -14 19 0 22 2 23 29 14 16 -6 32 -16
35 -24z m-252 -37 c-9 -9 -12 -7 -12 12 0 19 3 21 12 12 9 -9 9 -15 0 -24z
m441 -224 c-4 -12 -8 -13 -14 -3 -9 15 -2 32 11 24 5 -3 6 -13 3 -21z m67 10
c0 -8 -19 -13 -24 -6 -3 5 1 9 9 9 8 0 15 -2 15 -3z m100 -54 c0 -5 -4 -10
-10 -10 -5 0 -10 5 -10 10 0 6 5 10 10 10 6 0 10 -4 10 -10z m-170 -10 c0 -5
-9 -10 -20 -10 -11 0 -20 5 -20 10 0 6 9 10 20 10 11 0 20 -4 20 -10z m116
-32 c4 -5 -4 -8 -17 -8 -21 -1 -22 -2 -6 -11 26 -15 11 -29 -17 -16 -29 14
-24 43 9 42 13 0 27 -3 31 -7z m69 -56 c1 -17 -1 -19 -12 -10 -11 9 -12 13 -1
19 9 6 6 9 -9 9 -12 0 -24 4 -27 9 -4 5 5 6 21 2 17 -5 27 -14 28 -29z m289
-251 c3 -4 -6 -6 -19 -3 -14 2 -25 6 -25 8 0 8 39 4 44 -5z"/>
<path d="M4280 2693 c0 -17 19 -37 27 -29 4 5 2 11 -5 13 -6 3 -10 9 -6 14 3
5 0 9 -5 9 -6 0 -11 -3 -11 -7z"/>
<path d="M4110 2639 c0 -5 5 -7 10 -4 6 3 10 8 10 11 0 2 -4 4 -10 4 -5 0 -10
-5 -10 -11z"/>
<path d="M1791 2624 c0 -11 3 -14 6 -6 3 7 2 16 -1 19 -3 4 -6 -2 -5 -13z"/>
<path d="M1881 2614 c0 -11 3 -14 6 -6 3 7 2 16 -1 19 -3 4 -6 -2 -5 -13z"/>
<path d="M1270 2540 c-9 -6 -10 -10 -3 -10 6 0 15 5 18 10 8 12 4 12 -15 0z"/>
<path d="M1595 2520 c3 -5 8 -10 11 -10 2 0 4 5 4 10 0 6 -5 10 -11 10 -5 0
-7 -4 -4 -10z"/>
<path d="M1588 2483 c7 -3 16 -2 19 1 4 3 -2 6 -13 5 -11 0 -14 -3 -6 -6z"/>
<path d="M1630 2469 c0 -8 9 -20 20 -27 11 -7 20 -8 20 -4 0 5 -9 17 -20 27
-15 14 -20 15 -20 4z"/>
<path d="M0 2457 c0 -19 82 -128 379 -507 119 -152 159 -210 155 -225 -4 -16
-3 -17 6 -5 9 13 11 13 19 0 5 -8 44 -59 85 -113 42 -53 76 -100 76 -103 0 -3
6 -12 13 -19 32 -37 38 -46 32 -55 -3 -5 0 -8 7 -5 15 5 116 -123 137 -172 7
-18 17 -30 22 -28 4 3 19 -11 33 -32 13 -21 38 -51 55 -67 31 -30 40 -59 21
-71 -11 -7 -27 7 -52 46 -13 20 -14 29 -5 38 9 10 9 12 -3 9 -9 -2 -16 6 -18
20 -2 12 -8 22 -13 22 -6 0 -7 -6 -3 -12 4 -7 -5 -2 -19 11 -15 14 -27 29 -27
33 0 11 -25 38 -35 38 -3 0 -3 -6 1 -12 5 -9 2 -8 -10 1 -9 8 -15 20 -12 28 3
8 2 12 -3 9 -12 -8 -117 125 -113 143 2 9 1 13 -4 9 -13 -13 -32 12 -26 34 4
17 2 20 -11 15 -12 -4 -28 8 -54 41 -21 25 -45 56 -55 67 -9 11 -66 83 -127
160 -61 77 -123 155 -138 174 -45 56 -149 189 -231 298 l-77 101 -3 -95 c-2
-72 1 -98 11 -107 12 -10 94 -119 304 -406 34 -47 84 -114 110 -149 104 -138
107 -143 92 -153 -11 -7 -10 -8 5 -6 13 2 34 -18 72 -69 30 -40 51 -73 47 -73
-5 0 -33 15 -63 34 -40 24 -54 38 -53 53 2 16 -3 20 -21 18 -18 -2 -36 13 -82
72 -32 42 -70 92 -84 113 -14 21 -65 91 -115 156 -50 64 -99 132 -110 150 -11
18 -40 60 -65 93 l-45 62 -3 -86 -3 -85 41 -49 c28 -34 39 -54 34 -67 -4 -13
-3 -15 3 -6 7 9 25 -11 66 -71 31 -45 84 -109 118 -141 33 -32 72 -77 86 -100
14 -22 35 -51 46 -64 20 -22 20 -22 1 -37 -10 -8 -23 -15 -29 -15 -5 0 -22
-17 -37 -38 -23 -33 -36 -72 -75 -227 -21 -83 -20 -119 6 -169 14 -28 31 -55
37 -61 6 -5 26 -35 45 -65 50 -82 52 -85 73 -116 72 -109 69 -103 55 -120 -11
-14 -10 -15 7 -12 13 2 19 -2 18 -14 -1 -10 3 -16 9 -15 6 1 16 -9 23 -21 6
-13 17 -29 23 -35 6 -6 11 -18 11 -26 0 -9 16 -26 36 -39 26 -17 34 -28 29
-42 -5 -15 0 -21 19 -26 40 -10 31 -22 -14 -20 -51 3 -57 9 -30 36 12 12 19
25 15 28 -3 4 -23 -11 -43 -33 -23 -26 -44 -39 -56 -37 -10 2 -23 -1 -30 -8
-12 -12 -17 -62 -5 -54 12 7 17 -10 8 -31 -6 -15 -8 -16 -8 -4 -1 9 -8 23 -17
30 -15 12 -19 11 -32 -9 -8 -12 -24 -22 -36 -22 -19 1 -19 2 7 21 15 11 27 26
27 32 0 8 -3 8 -11 0 -6 -6 -18 -9 -25 -6 -8 3 -14 0 -14 -6 0 -6 -5 -11 -11
-11 -16 0 -2 48 24 81 12 16 35 32 51 37 16 4 32 14 34 22 3 9 -1 11 -11 7 -9
-3 -18 1 -21 9 -4 10 -13 13 -26 9 -10 -3 -29 -1 -40 5 -12 7 -25 8 -28 4 -4
-4 -2 -9 4 -11 9 -3 9 -10 0 -28 -6 -15 -17 -23 -25 -20 -20 8 -41 -14 -41
-42 0 -18 4 -23 15 -19 8 3 22 9 30 12 10 4 15 0 15 -10 0 -9 -5 -16 -10 -16
-7 0 -8 -13 -5 -34 8 -42 -16 -57 -40 -23 -12 18 -15 19 -15 4 0 -9 -4 -17
-10 -17 -5 0 -10 -7 -10 -15 0 -8 -4 -15 -10 -15 -5 0 -10 5 -10 11 0 6 -7 8
-17 5 -13 -5 -11 0 6 18 l24 26 -22 0 c-14 0 -20 -4 -15 -11 4 -7 1 -10 -7 -7
-8 3 -13 11 -11 18 2 10 -1 11 -10 3 -7 -6 -28 -9 -45 -8 -18 2 -31 -1 -28 -6
3 -4 11 -6 18 -3 15 6 44 -42 32 -53 -4 -5 -10 -2 -12 5 -7 20 -21 14 -25 -10
-4 -30 -38 -37 -45 -9 -5 19 -7 19 -39 6 -24 -10 -34 -11 -38 -2 -2 7 -5 -7
-5 -31 -1 -55 20 -79 53 -64 16 7 27 7 34 0 7 -7 19 -4 38 8 21 14 29 15 32 6
3 -9 10 -6 23 9 21 25 24 35 9 44 -5 3 -10 0 -10 -7 0 -8 -11 -15 -25 -16 -14
-1 -25 3 -25 9 0 6 7 9 15 5 10 -4 15 1 15 14 0 13 5 18 15 14 8 -4 15 -1 15
5 0 15 63 11 86 -6 16 -11 16 -14 0 -38 -19 -29 -33 -32 -39 -7 -4 14 -5 15
-6 1 0 -9 -10 -19 -21 -22 -38 -10 -20 -22 38 -25 53 -3 59 -1 69 21 7 15 23
26 42 30 17 4 31 11 31 17 0 18 52 90 61 84 5 -3 -1 -24 -13 -47 -34 -67 -38
-76 -38 -92 0 -26 27 -16 51 20 13 19 30 33 37 30 6 -2 12 2 12 10 0 21 18 28
34 12 9 -9 11 -19 6 -28 -5 -7 -12 -11 -15 -7 -9 9 -45 -23 -45 -40 0 -9 7
-11 23 -6 12 3 22 7 23 8 31 48 34 50 34 30 0 -11 -5 -25 -12 -32 -9 -9 -8
-12 5 -12 10 0 17 8 17 19 0 19 35 39 47 27 4 -3 2 -6 -4 -6 -6 0 -9 -9 -6
-20 11 -42 25 -19 21 33 -3 42 -1 56 15 72 11 11 17 14 12 7 -5 -10 -2 -13 11
-10 10 2 20 12 22 23 2 11 8 25 14 30 6 6 7 0 4 -19 -3 -16 -10 -33 -17 -36
-8 -6 -8 -9 0 -14 13 -9 15 -26 2 -26 -5 0 -11 8 -14 18 -3 14 -6 12 -14 -8
-8 -18 -7 -27 1 -32 8 -5 8 -13 -1 -28 -18 -28 -17 -30 20 -29 17 1 24 3 15 6
-26 7 -22 22 7 29 32 8 42 -1 25 -21 -11 -13 55 -15 624 -15 l637 0 -128 151
c-70 83 -136 166 -146 186 -10 19 -26 37 -36 40 -10 3 -24 14 -30 26 -24 46
-97 142 -108 142 -6 0 -26 20 -44 45 -18 25 -56 73 -86 108 -29 35 -53 67 -53
71 0 4 -20 28 -44 54 -24 25 -63 70 -85 99 -22 29 -99 127 -171 218 -72 91
-141 178 -153 193 -12 16 -30 36 -40 45 -10 9 -25 30 -33 45 -10 18 -21 27
-30 23 -9 -3 -14 -1 -12 7 4 17 -34 77 -49 77 -7 0 -13 6 -13 13 0 8 -9 22
-20 32 -11 10 -20 22 -20 27 0 4 -8 16 -17 26 -27 28 -56 64 -74 92 -9 14 -28
37 -41 51 -14 15 -28 34 -31 44 -4 9 -11 14 -15 11 -5 -3 -15 7 -23 22 -7 15
-19 34 -26 42 -23 26 -196 246 -253 321 -30 40 -72 92 -92 116 -21 24 -38 47
-38 51 -1 4 -19 27 -40 52 -29 32 -40 40 -40 27z m534 -1302 c16 -24 16 -26
-9 -51 -53 -53 -101 -7 -49 47 34 35 37 36 58 4z m525 -116 c-16 -10 -23 -4
-14 10 3 6 11 8 17 5 6 -4 5 -9 -3 -15z m39 -27 c-2 -9 2 -16 8 -15 6 1 10
-13 10 -33 -1 -35 -1 -35 -18 -13 -10 11 -15 26 -11 32 3 6 1 7 -5 3 -6 -3
-15 1 -20 11 -8 13 -6 20 6 29 20 15 34 8 30 -14z m72 -82 c0 -5 -4 -10 -10
-10 -5 0 -10 5 -10 10 0 6 5 10 10 10 6 0 10 -4 10 -10z m24 -54 c-5 -13 -9
-14 -21 -4 -13 10 -13 13 4 19 23 8 25 6 17 -15z m36 -22 c0 -14 -3 -14 -15
-4 -8 7 -15 14 -15 16 0 2 7 4 15 4 8 0 15 -7 15 -16z m-650 -618 c0 -3 -4 -8
-10 -11 -5 -3 -10 -1 -10 4 0 6 5 11 10 11 6 0 10 -2 10 -4z m-52 -12 c12 -4
22 -10 22 -14 0 -13 -53 -5 -58 9 -4 12 3 13 36 5z m632 -38 c-14 -14 -24 0
-16 21 6 15 8 15 16 3 6 -9 5 -19 0 -24z m-480 -6 c0 -5 -5 -10 -11 -10 -5 0
-7 5 -4 10 3 6 8 10 11 10 2 0 4 -4 4 -10z m-123 -20 c-14 -11 -31 -20 -38
-20 -8 0 -6 7 6 20 10 11 27 20 38 20 18 0 17 -2 -6 -20z m59 -27 c-6 -15 -9
-15 -16 -3 -6 9 -5 17 3 22 16 10 21 2 13 -19z m-421 7 c3 -5 1 -10 -4 -10 -6
0 -11 5 -11 10 0 6 2 10 4 10 3 0 8 -4 11 -10z m585 -64 c0 -17 -17 -2 -30 27
-14 32 -14 32 -20 7 -4 -16 -8 -21 -13 -13 -4 7 -2 21 5 32 11 19 13 18 35
-14 13 -19 23 -36 23 -39z m-692 -18 c-5 -15 -58 -24 -58 -10 0 15 12 22 38
22 14 0 22 -5 20 -12z m707 -28 c-3 -5 -11 -10 -16 -10 -6 0 -7 5 -4 10 3 6
11 10 16 10 6 0 7 -4 4 -10z"/>
<path d="M1335 2454 c-39 -20 -46 -29 -15 -20 14 4 31 8 38 10 7 1 18 8 24 14
18 18 -10 16 -47 -4z"/>
<path d="M1571 2424 c-7 -8 -11 -17 -9 -20 3 -2 13 5 23 16 10 11 14 20 9 20
-5 -1 -15 -8 -23 -16z"/>
<path d="M1696 2425 c4 -8 11 -15 16 -15 6 0 5 6 -2 15 -7 8 -14 15 -16 15 -2
0 -1 -7 2 -15z"/>
<path d="M1323 2413 c-10 -3 -10 -7 0 -18 8 -9 16 -10 25 -3 25 21 9 35 -25
21z"/>
<path d="M1664 2408 c-4 -7 -4 -10 1 -6 4 4 15 2 24 -5 14 -11 14 -10 2 6 -16
20 -18 21 -27 5z"/>
<path d="M1527 2396 c-4 -10 -1 -19 9 -23 21 -8 26 1 11 22 -13 16 -14 16 -20
1z"/>
<path d="M1176 2361 c-4 -7 -5 -15 -2 -18 9 -9 19 4 14 18 -4 11 -6 11 -12 0z"/>
<path d="M1444 2335 c-18 -14 -18 -14 3 -15 23 0 39 15 25 24 -5 3 -18 -1 -28
-9z"/>
<path d="M1315 2320 c-3 -5 -2 -10 4 -10 5 0 13 5 16 10 3 6 2 10 -4 10 -5 0
-13 -4 -16 -10z"/>
<path d="M5632 2310 c0 -14 2 -19 5 -12 2 6 2 18 0 25 -3 6 -5 1 -5 -13z"/>
<path d="M1339 2293 c-13 -15 -12 -15 9 -4 23 12 28 21 13 21 -5 0 -15 -7 -22
-17z"/>
<path d="M1635 2300 c4 -6 -9 -10 -32 -11 -30 0 -34 -2 -18 -8 22 -9 73 -7 83
4 4 3 0 10 -8 15 -20 13 -33 12 -25 0z"/>
<path d="M1520 2250 c0 -5 5 -10 10 -10 6 0 10 5 10 10 0 6 -4 10 -10 10 -5 0
-10 -4 -10 -10z"/>
<path d="M1547 2241 c-7 -29 7 -43 21 -21 10 16 10 20 0 21 -7 0 -4 4 7 9 19
8 19 9 -1 9 -13 1 -24 -6 -27 -18z"/>
<path d="M1740 2230 c0 -5 4 -10 9 -10 6 0 13 5 16 10 3 6 -1 10 -9 10 -9 0
-16 -4 -16 -10z"/>
<path d="M133 2205 c-3 -9 -3 -18 0 -21 9 -9 27 6 27 22 0 19 -19 18 -27 -1z"/>
<path d="M1174 2204 c3 -9 6 -19 6 -22 0 -9 20 21 20 31 0 4 -7 7 -16 7 -11 0
-14 -5 -10 -16z"/>
<path d="M1578 2203 c7 -3 16 -2 19 1 4 3 -2 6 -13 5 -11 0 -14 -3 -6 -6z"/>
<path d="M1410 2180 c-8 -5 -11 -12 -7 -16 4 -4 15 0 24 9 18 18 8 23 -17 7z"/>
<path d="M5597 2161 c3 -12 10 -21 15 -21 13 0 6 32 -9 37 -7 3 -9 -3 -6 -16z"/>
<path d="M169 2154 c-12 -14 -11 -16 5 -13 11 2 21 10 24 17 5 17 -13 15 -29
-4z"/>
<path d="M5581 2134 c0 -11 3 -14 6 -6 3 7 2 16 -1 19 -3 4 -6 -2 -5 -13z"/>
<path d="M1730 2115 c-13 -16 -7 -45 10 -45 14 0 13 17 -2 22 -7 3 -8 10 -4
17 7 11 10 11 17 0 6 -10 9 -10 9 -2 0 19 -17 24 -30 8z"/>
<path d="M5730 2094 c0 -3 11 -22 25 -42 29 -43 32 -38 8 13 -14 30 -33 47
-33 29z"/>
<path d="M5582 2016 c7 -8 15 -12 17 -11 5 6 -10 25 -20 25 -5 0 -4 -6 3 -14z"/>
<path d="M5800 2005 c20 -26 63 -64 73 -65 9 0 -36 46 -68 70 -19 14 -19 14
-5 -5z"/>
<path d="M500 1957 c14 -8 27 -12 30 -10 7 6 -23 23 -40 23 -8 0 -4 -6 10 -13z"/>
<path d="M5570 1950 c0 -5 6 -10 13 -11 6 0 2 -4 -11 -10 -23 -9 -28 -39 -7
-46 13 -4 35 45 28 63 -6 16 -23 19 -23 4z"/>
<path d="M1825 1890 c4 -6 11 -8 16 -5 14 9 11 15 -7 15 -8 0 -12 -5 -9 -10z"/>
<path d="M1827 1786 c-14 -11 -15 -15 -3 -19 8 -3 16 2 19 14 3 10 4 19 4 19
-1 0 -10 -7 -20 -14z"/>
<path d="M0 1723 c1 -60 16 -93 43 -93 29 0 29 20 -3 85 -17 36 -34 65 -36 65
-2 0 -4 -26 -4 -57z"/>
<path d="M1421 1745 c-1 -5 4 -50 10 -100 16 -144 19 -185 12 -185 -4 0 -18
10 -32 23 l-25 22 23 -32 c12 -18 26 -33 31 -33 10 0 24 -39 17 -47 -3 -2 -24
12 -46 32 -46 42 -53 35 -16 -16 15 -19 35 -35 48 -35 12 -1 30 -5 39 -9 25
-10 35 21 14 44 -9 10 -15 33 -14 57 0 21 -2 50 -6 64 l-8 25 14 -24 c7 -14
19 -26 25 -28 8 -3 3 21 -14 64 -14 37 -36 95 -49 128 -13 33 -23 56 -23 50z"/>
<path d="M570 1640 c0 -5 5 -10 10 -10 6 0 10 5 10 10 0 6 -4 10 -10 10 -5 0
-10 -4 -10 -10z"/>
<path d="M240 1460 c0 -11 4 -20 9 -20 11 0 22 26 14 34 -12 12 -23 5 -23 -14z"/>
<path d="M462 1468 c6 -18 28 -21 28 -4 0 9 -7 16 -16 16 -9 0 -14 -5 -12 -12z"/>
<path d="M163 1440 c-7 -10 -9 -21 -5 -24 10 -6 43 30 35 38 -10 10 -18 7 -30
-14z"/>
<path d="M221 1414 c0 -11 3 -14 6 -6 3 7 2 16 -1 19 -3 4 -6 -2 -5 -13z"/>
<path d="M39 1402 c-22 -11 -35 -26 -37 -41 -3 -17 0 -21 10 -15 10 6 10 4 -1
-9 -12 -15 -11 -17 7 -17 14 0 21 9 26 31 3 17 10 28 15 25 4 -3 16 3 25 13
24 27 -2 34 -45 13z"/>
<path d="M130 1410 c-1 -3 -2 -22 -4 -43 l-3 -38 24 23 c15 14 19 24 12 29 -6
4 -15 13 -20 20 -5 8 -9 12 -9 9z"/>
<path d="M360 1339 c0 -5 5 -7 10 -4 6 3 10 8 10 11 0 2 -4 4 -10 4 -5 0 -10
-5 -10 -11z"/>
<path d="M76 1314 c-10 -25 1 -29 14 -5 6 12 7 21 1 21 -5 0 -12 -7 -15 -16z"/>
<path d="M16 1232 l-19 -27 26 24 c28 26 32 31 20 31 -5 0 -17 -13 -27 -28z"/>
<path d="M175 1240 c-3 -5 -2 -10 4 -10 5 0 13 5 16 10 3 6 2 10 -4 10 -5 0
-13 -4 -16 -10z"/>
<path d="M925 1200 c3 -5 8 -10 11 -10 2 0 4 5 4 10 0 6 -5 10 -11 10 -5 0 -7
-4 -4 -10z"/>
<path d="M6331 1044 c0 -11 3 -14 6 -6 3 7 2 16 -1 19 -3 4 -6 -2 -5 -13z"/>
<path d="M1200 1026 c0 -2 8 -10 18 -17 15 -13 16 -12 3 4 -13 16 -21 21 -21
13z"/>
<path d="M1490 945 c-15 -8 -19 -14 -10 -14 18 -1 46 16 40 23 -3 2 -16 -2
-30 -9z"/>
<path d="M1491 888 c16 -31 16 -31 22 -14 4 10 -2 20 -14 27 -19 10 -20 9 -8
-13z"/>
<path d="M1497 803 c-4 -3 -2 -12 4 -20 13 -15 59 -18 59 -3 0 6 -9 10 -20 10
-11 0 -20 5 -20 10 0 11 -13 13 -23 3z"/>
<path d="M6373 763 c-7 -2 -13 -11 -13 -19 0 -8 -4 -14 -10 -14 -5 0 -20 -16
-32 -35 -13 -19 -26 -35 -30 -35 -9 0 -60 -50 -51 -50 3 0 -4 -8 -15 -19 -12
-10 -22 -26 -22 -35 0 -9 -7 -16 -15 -16 -8 0 -25 -18 -37 -40 -13 -22 -27
-40 -33 -40 -18 -1 -65 -73 -60 -90 7 -22 -4 -52 -16 -44 -5 3 -9 -1 -9 -8 0
-9 -3 -9 -10 2 -16 23 -73 -46 -59 -71 6 -12 5 -20 -3 -25 -6 -4 -8 -3 -5 2 3
6 2 16 -2 23 -6 9 -14 5 -30 -18 -13 -17 -27 -28 -33 -24 -7 4 -9 0 -5 -10 3
-8 -3 -25 -14 -38 -10 -12 -19 -17 -19 -11 0 7 -4 12 -10 12 -5 0 -9 -10 -7
-22 1 -13 -4 -23 -11 -23 -8 0 -25 -13 -38 -30 -18 -22 -26 -27 -33 -17 -6 10
-11 10 -21 -3 -12 -15 -11 -16 5 -13 10 1 20 -3 23 -11 3 -8 0 -11 -6 -7 -6 3
-13 2 -17 -4 -11 -18 -25 -11 -26 13 -1 16 -2 18 -6 4 -2 -9 -8 -17 -13 -17
-4 0 -3 16 3 35 6 19 7 38 4 41 -17 17 -73 -65 -63 -91 4 -12 73 -14 386 -15
l380 0 0 385 c0 212 -3 385 -7 384 -5 0 -14 -3 -20 -6z m-275 -421 c-10 -2
-18 -8 -18 -14 0 -6 -2 -9 -5 -6 -12 12 7 37 23 30 16 -6 15 -7 0 -10z m-175
-217 c-3 -9 -8 -14 -10 -11 -3 3 -2 9 2 15 9 16 15 13 8 -4z"/>
<path d="M5910 678 c-21 -47 -28 -124 -9 -112 15 9 47 82 51 118 5 46 -20 43
-42 -6z m16 -43 c-4 -19 -12 -35 -17 -35 -6 0 -8 10 -4 23 4 12 9 30 12 40 9
32 16 10 9 -28z"/>
<path d="M6281 684 c0 -11 3 -14 6 -6 3 7 2 16 -1 19 -3 4 -6 -2 -5 -13z"/>
<path d="M30 659 c0 -5 5 -7 10 -4 6 3 10 8 10 11 0 2 -4 4 -10 4 -5 0 -10 -5
-10 -11z"/>
<path d="M352 659 c2 -7 10 -15 17 -17 8 -3 12 1 9 9 -2 7 -10 15 -17 17 -8 3
-12 -1 -9 -9z"/>
<path d="M1563 656 c-30 -14 -29 -30 1 -22 34 8 58 -3 51 -24 -8 -26 19 -44
44 -30 28 15 26 18 -6 12 l-26 -5 21 31 c27 38 27 42 0 40 -13 -1 -32 1 -43 4
-11 3 -30 0 -42 -6z"/>
<path d="M238 635 c-5 -26 6 -35 15 -12 4 7 6 6 6 -5 1 -9 -5 -19 -11 -21 -7
-3 -1 -6 13 -6 32 -1 68 34 51 51 -6 6 -24 13 -40 14 -25 3 -31 -1 -34 -21z"/>
<path d="M37 643 c-9 -2 -15 -9 -12 -14 9 -14 22 -11 29 6 3 8 4 14 3 14 -1
-1 -10 -3 -20 -6z"/>
<path d="M5848 603 c-13 -31 -17 -103 -6 -103 4 0 10 21 13 48 4 26 9 55 12
65 7 27 -6 20 -19 -10z"/>
<path d="M5986 598 c-26 -41 -54 -123 -47 -141 6 -16 9 -15 30 9 27 31 55 93
46 103 -9 8 -35 -29 -35 -50 0 -10 -5 -21 -11 -25 -7 -4 -9 1 -5 15 3 11 8 30
11 40 3 11 17 26 30 35 14 9 25 21 25 26 0 19 -30 10 -44 -12z"/>
<path d="M52 579 c-10 -15 -10 -19 2 -19 15 0 29 27 18 34 -5 3 -13 -4 -20
-15z"/>
<path d="M272 568 c5 -15 28 -23 28 -10 0 5 -7 13 -16 16 -10 4 -14 1 -12 -6z"/>
<path d="M4073 567 c-41 -14 -43 -27 -4 -27 20 0 30 6 34 20 3 11 4 19 4 19
-1 -1 -17 -7 -34 -12z"/>
<path d="M1792 558 c6 -18 28 -21 28 -4 0 9 -7 16 -16 16 -9 0 -14 -5 -12 -12z"/>
<path d="M125 549 c-11 -17 1 -21 15 -4 8 9 8 15 2 15 -6 0 -14 -5 -17 -11z"/>
<path d="M5776 526 c-32 -43 -32 -47 -1 -33 13 7 27 23 30 36 9 36 0 35 -29
-3z"/>
<path d="M4115 530 c3 -5 10 -10 16 -10 5 0 9 5 9 10 0 6 -7 10 -16 10 -8 0
-12 -4 -9 -10z"/>
<path d="M5915 511 c-8 -17 -19 -31 -24 -31 -10 0 -26 -39 -36 -85 -3 -16 -9
-39 -12 -50 -5 -17 -4 -18 11 -6 9 7 16 22 16 32 0 20 20 37 20 17 1 -8 7 -5
16 7 9 12 12 30 9 47 -4 16 0 39 10 58 9 18 14 34 11 37 -2 3 -12 -9 -21 -26z"/>
<path d="M217 523 c-10 -9 -9 -23 2 -23 5 0 11 7 15 15 5 15 -5 20 -17 8z"/>
<path d="M3550 510 c-13 -8 -12 -10 3 -10 9 0 17 5 17 10 0 12 -1 12 -20 0z"/>
<path d="M345 499 c-4 -6 -5 -12 -2 -15 2 -3 7 2 10 11 7 17 1 20 -8 4z"/>
<path d="M3620 495 c-20 -24 -6 -28 15 -5 10 11 13 20 8 20 -6 0 -16 -7 -23
-15z"/>
<path d="M290 470 c0 -5 5 -10 10 -10 6 0 10 5 10 10 0 6 -4 10 -10 10 -5 0
-10 -4 -10 -10z"/>
<path d="M5761 442 c-8 -20 -16 -43 -19 -51 -3 -9 -1 -12 6 -7 12 7 37 85 30
92 -2 2 -10 -13 -17 -34z"/>
<path d="M133 456 c-28 -13 -29 -21 -2 -23 11 -1 23 5 26 13 7 20 2 22 -24 10z"/>
<path d="M4193 464 c-10 -4 -10 -9 1 -20 16 -15 49 -8 43 10 -4 12 -26 17 -44
10z"/>
<path d="M5706 441 c-15 -17 -36 -72 -36 -95 0 -6 7 -1 15 10 8 10 15 14 15 8
0 -6 -9 -23 -20 -37 -22 -27 -25 -37 -12 -37 13 0 52 75 52 99 0 12 -4 19 -10
16 -15 -9 -12 2 6 30 19 29 14 33 -10 6z"/>
<path d="M10 440 c0 -6 7 -10 15 -10 8 0 15 2 15 4 0 2 -7 6 -15 10 -8 3 -15
1 -15 -4z"/>
<path d="M188 443 c-10 -2 -18 -9 -18 -14 0 -6 -4 -8 -9 -4 -5 3 -12 1 -16 -5
-3 -5 -17 -10 -31 -10 -13 0 -24 -4 -24 -9 0 -15 74 -6 103 13 15 10 27 22 27
27 0 9 -4 10 -32 2z"/>
<path d="M400 440 c0 -5 5 -10 10 -10 6 0 10 5 10 10 0 6 -4 10 -10 10 -5 0
-10 -4 -10 -10z"/>
<path d="M3711 441 c-7 -5 -12 -13 -10 -18 2 -6 13 -2 23 8 20 19 12 26 -13
10z"/>
<path d="M3552 433 c-6 -2 -10 -9 -6 -14 8 -14 21 -11 21 6 0 8 -1 15 -1 14
-1 0 -7 -3 -14 -6z"/>
<path d="M5945 402 c-28 -43 -57 -126 -48 -136 13 -13 30 -5 41 20 7 14 16 23
20 20 4 -2 8 3 9 12 5 50 11 80 18 91 4 7 3 17 -3 23 -7 7 -19 -3 -37 -30z
m-13 -84 c-8 -8 -9 -4 -5 13 4 13 8 18 11 10 2 -7 -1 -18 -6 -23z"/>
<path d="M320 411 c-12 -24 -13 -34 -1 -27 9 6 22 46 15 46 -2 0 -8 -9 -14
-19z"/>
<path d="M486 415 c4 -8 8 -15 10 -15 2 0 4 7 4 15 0 8 -4 15 -10 15 -5 0 -7
-7 -4 -15z"/>
<path d="M3673 423 c-17 -6 -16 -20 0 -26 8 -3 14 3 14 14 1 10 1 19 0 18 -1
0 -8 -3 -14 -6z"/>
<path d="M3585 410 c-3 -5 -2 -10 4 -10 5 0 13 5 16 10 3 6 2 10 -4 10 -5 0
-13 -4 -16 -10z"/>
<path d="M253 374 c-12 -25 -7 -30 16 -15 9 6 10 14 5 24 -8 13 -11 12 -21 -9z"/>
<path d="M3775 390 c-3 -5 -2 -10 4 -10 5 0 13 5 16 10 3 6 2 10 -4 10 -5 0
-13 -4 -16 -10z"/>
<path d="M3639 383 c-1 -5 -1 -12 0 -17 1 -5 -3 -12 -10 -17 -8 -5 -5 -11 11
-19 30 -16 44 -1 31 33 -10 25 -29 37 -32 20z"/>
<path d="M390 360 c0 -5 4 -10 9 -10 6 0 13 5 16 10 3 6 -1 10 -9 10 -9 0 -16
-4 -16 -10z"/>
<path d="M5628 353 c-19 -21 -40 -93 -28 -93 5 0 10 6 13 13 2 6 8 9 12 4 5
-4 -4 -21 -20 -37 -16 -16 -26 -33 -22 -36 20 -21 67 68 64 125 -1 22 -2 41
-3 41 0 0 -8 -8 -16 -17z m5 -38 c-3 -9 -8 -14 -10 -11 -3 3 -2 9 2 15 9 16
15 13 8 -4z"/>
<path d="M520 349 c0 -5 5 -7 10 -4 6 3 10 8 10 11 0 2 -4 4 -10 4 -5 0 -10
-5 -10 -11z"/>
<path d="M2025 350 c-18 -8 -18 -9 -2 -9 10 -1 15 -5 12 -11 -3 -5 3 -10 15
-10 18 0 19 3 10 20 -6 11 -12 20 -13 19 -1 0 -11 -4 -22 -9z"/>
<path d="M5880 330 c-6 -12 -20 -30 -30 -40 -20 -20 -40 -79 -40 -119 0 -20 2
-21 15 -11 8 7 15 24 15 39 0 18 3 22 9 12 12 -18 41 23 34 50 -3 10 0 33 7
49 15 36 7 52 -10 20z"/>
<path d="M127 323 c-4 -3 -7 -11 -7 -17 0 -6 5 -5 12 2 6 6 9 14 7 17 -3 3 -9
2 -12 -2z"/>
<path d="M491 306 c-13 -13 -34 -27 -47 -30 -26 -7 -29 -13 -14 -36 8 -12 14
-10 40 15 16 16 30 34 30 41 0 7 6 14 13 17 6 2 9 7 6 11 -3 3 -16 -5 -28 -18z"/>
<path d="M558 323 c7 -3 16 -2 19 1 4 3 -2 6 -13 5 -11 0 -14 -3 -6 -6z"/>
<path d="M160 300 c0 -11 4 -20 9 -20 11 0 22 26 14 34 -12 12 -23 5 -23 -14z"/>
<path d="M3680 309 c0 -5 8 -9 18 -9 10 0 27 -7 38 -15 22 -17 44 -19 44 -5 0
6 -8 10 -17 10 -15 0 -15 1 1 13 16 12 12 14 -33 15 -28 0 -51 -3 -51 -9z"/>
<path d="M4025 310 c-3 -5 -1 -10 4 -10 6 0 11 5 11 10 0 6 -2 10 -4 10 -3 0
-8 -4 -11 -10z"/>
<path d="M5700 268 c-23 -38 -24 -44 -10 -53 16 -10 12 -24 -15 -47 -22 -19
-25 -38 -7 -38 14 0 51 66 56 101 3 20 8 43 12 52 11 30 -16 18 -36 -15z"/>
<path d="M245 270 c-3 -5 -4 -10 -1 -10 2 0 11 -2 19 -5 8 -4 14 0 14 10 0 17
-22 21 -32 5z"/>
<path d="M107 264 c-4 -4 -4 -11 -1 -15 8 -14 31 -10 38 6 5 15 -24 22 -37 9z"/>
<path d="M2260 250 c0 -5 5 -10 10 -10 6 0 10 5 10 10 0 6 -4 10 -10 10 -5 0
-10 -4 -10 -10z"/>
<path d="M60 235 c-10 -12 -10 -15 3 -15 8 0 17 7 21 15 3 8 2 15 -3 15 -5 0
-14 -7 -21 -15z"/>
<path d="M220 220 c0 -11 4 -20 9 -20 17 0 19 15 5 28 -12 11 -14 9 -14 -8z"/>
<path d="M5477 164 c-4 -4 -7 -14 -7 -23 0 -11 3 -12 11 -4 6 6 10 16 7 23 -2
6 -7 8 -11 4z"/>
<path d="M5413 138 c-29 -32 -53 -83 -53 -113 0 -20 5 -25 24 -25 19 0 29 10
45 43 21 43 29 117 13 117 -5 0 -18 -10 -29 -22z m17 -38 c0 -21 -29 -80 -39
-80 -16 0 -13 26 4 60 15 29 35 40 35 20z"/>
<path d="M5576 127 c-15 -19 -26 -42 -26 -53 1 -15 4 -13 16 9 8 15 17 27 20
27 3 0 -9 -25 -26 -55 -24 -42 -28 -55 -16 -55 8 0 24 12 35 26 22 29 28 49
10 39 -6 -4 -1 11 10 34 35 68 21 85 -23 28z"/>
<path d="M2107 114 c-15 -13 -35 -24 -43 -24 -8 0 -14 -4 -14 -10 0 -13 12
-13 46 0 21 8 31 7 44 -5 26 -24 149 -18 134 6 -3 5 -24 9 -47 9 -30 0 -48 7
-66 24 l-26 25 -28 -25z"/>
<path d="M5775 120 c-3 -5 -1 -10 4 -10 6 0 11 5 11 10 0 6 -2 10 -4 10 -3 0
-8 -4 -11 -10z"/>
<path d="M5615 99 c-9 -28 1 -36 14 -10 7 12 7 22 2 26 -5 3 -13 -4 -16 -16z"/>
<path d="M5467 103 c-4 -3 -7 -13 -7 -21 0 -12 3 -12 15 -2 8 7 15 16 15 21 0
11 -14 12 -23 2z"/>
<path d="M5507 43 c-21 -39 -21 -43 -2 -43 15 0 30 40 23 62 -3 8 -12 0 -21
-19z"/>
<path d="M5326 44 c-9 -23 -7 -44 3 -44 5 0 11 13 13 30 5 32 -6 41 -16 14z"/>
</g>
</svg>
